<?xml version="1.0" encoding="utf-8"?>
<!-- Generator: Adobe Illustrator 26.3.1, SVG Export Plug-In . SVG Version: 6.00 Build 0)  -->
<svg version="1.1" id="Layer_1" xmlns="http://www.w3.org/2000/svg" xmlns:xlink="http://www.w3.org/1999/xlink" x="0px" y="0px"
	 viewBox="0 0 60.5 59.6" style="enable-background:new 0 0 60.5 59.6;" xml:space="preserve">
<style type="text/css">
	.st0{fill:#26180F;}
	.st1{fill:#FF2116;}
	.st2{fill:#2C2C2C;}
	.st3{fill:url(#SVGID_1_);}
	.st4{fill:#2E76BB;}
	.st5{fill:#F47F21;}
	.st6{fill:url(#SVGID_00000013178236126943428730000005622255224686393245_);}
	.st7{fill-rule:evenodd;clip-rule:evenodd;fill:#FEFEFE;}
	.st8{fill-rule:evenodd;clip-rule:evenodd;fill:url(#SVGID_00000016047029571383278050000009548304438188757431_);}
	.st9{fill-rule:evenodd;clip-rule:evenodd;fill:url(#SVGID_00000040550227251931301120000011878004171734925450_);}
	.st10{fill:#FEFEFE;}
	.st11{fill:#0089D1;}
	.st12{fill:#007CB8;}
	.st13{fill-rule:evenodd;clip-rule:evenodd;}
	.st14{fill-rule:evenodd;clip-rule:evenodd;fill:url(#SVGID_00000150060142820586091660000006891245007856619701_);}
	.st15{fill-rule:evenodd;clip-rule:evenodd;fill:url(#SVGID_00000179614965831521213640000010012246468464868493_);}
	.st16{fill-rule:evenodd;clip-rule:evenodd;fill:url(#SVGID_00000128443629924788574080000016694060164785939387_);}
	.st17{fill-rule:evenodd;clip-rule:evenodd;fill:url(#SVGID_00000121982703309366451460000015814821063396304525_);}
	.st18{fill-rule:evenodd;clip-rule:evenodd;fill:url(#SVGID_00000069365464959908803180000000620507179445032836_);}
	.st19{fill-rule:evenodd;clip-rule:evenodd;fill:url(#SVGID_00000055670139662825511300000001514810511477588104_);}
	.st20{fill-rule:evenodd;clip-rule:evenodd;fill:url(#SVGID_00000014631561690324993390000002574621250673717931_);}
	.st21{fill-rule:evenodd;clip-rule:evenodd;fill:url(#SVGID_00000127760070539051308050000005665982282097860736_);}
	.st22{fill-rule:evenodd;clip-rule:evenodd;fill:url(#SVGID_00000135670471937775499710000018269433878508022450_);}
	.st23{fill-rule:evenodd;clip-rule:evenodd;fill:url(#SVGID_00000066499859704283824300000016648319458996772771_);}
</style>
<g>
	<path class="st5" d="M59.3,16.7H51c-0.5,0-0.6,0.2-0.6,0.6h0.1v41.5c0,0.4,0.2,0.7,0.7,0.7h8.2c0.5,0,0.6-0.2,0.6-0.6V17.4
		C59.9,16.9,59.7,16.7,59.3,16.7z"/>
	<path class="st5" d="M55,10.7c3.2,0,5.5-1.9,5.5-5.4c0-3.2-2.2-5.4-5.4-5.4c-3,0-5.4,2-5.4,5.4C49.8,8.9,52,10.8,55,10.7z"/>
	<path class="st5" d="M0.6,59.6h7.8c0.5,0,0.7-0.1,0.8-0.5l4.2-15.8h16.9l4.3,15.9c0.1,0.4,0.4,0.5,0.8,0.5H44
		c0.4,0,0.5-0.3,0.4-0.7L27.7,2c-0.1-0.4-0.3-0.5-0.6-0.5H16c-0.3,0-0.4,0.2-0.4,0.5c-0.1,2.6-0.3,3.4-0.5,4.4L0,58.8
		C-0.1,59.4,0,59.6,0.6,59.6z M21.5,9.9h0.1c1.3,6.2,4.8,18.9,6.3,24.8H15.4C17.6,26.5,20.4,16.1,21.5,9.9z"/>
</g>
</svg>
