<?xml version="1.0" encoding="utf-8"?>
<!-- Generator: Adobe Illustrator 26.3.1, SVG Export Plug-In . SVG Version: 6.00 Build 0)  -->
<svg version="1.1" id="Layer_1" xmlns="http://www.w3.org/2000/svg" xmlns:xlink="http://www.w3.org/1999/xlink" x="0px" y="0px"
	 viewBox="0 0 98 40.8" style="enable-background:new 0 0 98 40.8;" xml:space="preserve">
<style type="text/css">
	.st0{fill:#26180F;}
	.st1{fill:#FF2116;}
	.st2{fill:#2C2C2C;}
	.st3{fill:url(#SVGID_1_);}
	.st4{fill:#2E76BB;}
	.st5{fill:#F47F21;}
	.st6{fill:url(#SVGID_00000119811400948165877000000008692524592937683599_);}
	.st7{fill-rule:evenodd;clip-rule:evenodd;fill:#FEFEFE;}
	.st8{fill-rule:evenodd;clip-rule:evenodd;fill:url(#SVGID_00000160871549056863056640000005849686212916236477_);}
	.st9{fill-rule:evenodd;clip-rule:evenodd;fill:url(#SVGID_00000052068207413551758100000014476204608593312642_);}
	.st10{fill:#FEFEFE;}
	.st11{fill:#0089D1;}
	.st12{fill:#007CB8;}
	.st13{fill-rule:evenodd;clip-rule:evenodd;}
	.st14{fill-rule:evenodd;clip-rule:evenodd;fill:url(#SVGID_00000102537478703678273200000014125319643206736810_);}
	.st15{fill-rule:evenodd;clip-rule:evenodd;fill:url(#SVGID_00000062170745868861354200000002794258660419134362_);}
	.st16{fill-rule:evenodd;clip-rule:evenodd;fill:url(#SVGID_00000014626473512186970970000006130294640347511994_);}
	.st17{fill-rule:evenodd;clip-rule:evenodd;fill:url(#SVGID_00000106838927762319398680000010016168888540186526_);}
	.st18{fill-rule:evenodd;clip-rule:evenodd;fill:url(#SVGID_00000091712010867626777210000002618348378014963844_);}
	.st19{fill-rule:evenodd;clip-rule:evenodd;fill:url(#SVGID_00000010992463876454251810000007904462378432570292_);}
	.st20{fill-rule:evenodd;clip-rule:evenodd;fill:url(#SVGID_00000118377249522696420780000016362987339523686828_);}
	.st21{fill-rule:evenodd;clip-rule:evenodd;fill:url(#SVGID_00000066483807092381785580000014641867991537064340_);}
	.st22{fill-rule:evenodd;clip-rule:evenodd;fill:url(#SVGID_00000107551158824455766980000004036160268657709450_);}
	.st23{fill-rule:evenodd;clip-rule:evenodd;fill:url(#SVGID_00000183230303998412050160000017849169369167015306_);}
</style>
<g>
	<path d="M33.1,20.4c0,3.4-0.5,6.3-1.6,8.8c-1.1,2.5-2.5,4.6-4.5,6.3c-1.9,1.7-4.3,2.9-7,3.7c-2.7,0.8-5.7,1.2-9,1.2
		c-1.6,0-3.4-0.1-5.4-0.2c-2-0.1-3.9-0.4-5.7-0.8V1.5c1.8-0.4,3.7-0.7,5.7-0.8c2-0.1,3.8-0.2,5.4-0.2c3.3,0,6.3,0.4,9,1.2s5,2,7,3.6
		c1.9,1.6,3.4,3.7,4.5,6.2C32.6,14,33.1,16.9,33.1,20.4z M7.1,34.1c0.4,0,1,0.1,1.6,0.1c0.7,0,1.6,0,2.8,0c4.8,0,8.3-1.2,10.7-3.6
		c2.3-2.4,3.5-5.8,3.5-10.2c0-4.4-1.1-7.8-3.4-10.2C20,7.8,16.4,6.6,11.6,6.6C9.5,6.6,8,6.7,7.1,6.8V34.1z"/>
	<path d="M49.8,34.6c2.6,0,4.4-0.4,5.6-1.3c1.2-0.9,1.7-2.1,1.7-3.7c0-0.9-0.2-1.7-0.6-2.4s-1-1.3-1.7-1.8c-0.7-0.5-1.6-1.1-2.7-1.5
		c-1.1-0.5-2.3-0.9-3.6-1.4c-1.4-0.5-2.7-1-3.9-1.6c-1.3-0.6-2.4-1.3-3.3-2.2c-1-0.9-1.7-1.9-2.3-3.1c-0.6-1.2-0.9-2.6-0.9-4.3
		c0-3.5,1.2-6.3,3.7-8.3c2.4-2,5.8-3,10-3c2.4,0,4.6,0.3,6.5,0.8c1.9,0.5,3.4,1.1,4.5,1.8l-2.2,5.7c-1.3-0.7-2.7-1.3-4.2-1.6
		c-1.5-0.4-3.1-0.6-4.7-0.6c-1.9,0-3.4,0.4-4.5,1.2c-1.1,0.8-1.6,1.9-1.6,3.3c0,0.9,0.2,1.6,0.5,2.2c0.4,0.6,0.9,1.2,1.5,1.7
		c0.7,0.5,1.4,0.9,2.3,1.4c0.9,0.4,1.8,0.8,2.9,1.2c1.8,0.7,3.5,1.4,4.9,2.1c1.4,0.7,2.7,1.5,3.7,2.5c1,1,1.8,2.1,2.3,3.4
		c0.5,1.3,0.8,2.9,0.8,4.7c0,3.5-1.2,6.3-3.7,8.2c-2.5,1.9-6.1,2.9-11,2.9c-1.6,0-3.1-0.1-4.4-0.3c-1.3-0.2-2.5-0.5-3.5-0.8
		c-1-0.3-1.9-0.6-2.7-0.9c-0.8-0.3-1.4-0.6-1.8-0.9l2.1-5.8c1,0.6,2.4,1.1,4.1,1.7C45.3,34.4,47.4,34.6,49.8,34.6z"/>
	<path d="M98,0.9V7H86v32.9h-7.2V7h-12V0.9H98z"/>
</g>
</svg>
