<?xml version="1.0" encoding="utf-8"?>
<!-- Generator: Adobe Illustrator 26.3.1, SVG Export Plug-In . SVG Version: 6.00 Build 0)  -->
<svg version="1.1" id="Layer_1" xmlns="http://www.w3.org/2000/svg" xmlns:xlink="http://www.w3.org/1999/xlink" x="0px" y="0px"
	 viewBox="0 0 89.6 49.5" style="enable-background:new 0 0 89.6 49.5;" xml:space="preserve">
<style type="text/css">
	.st0{fill:#26180F;}
	.st1{fill:#FF2116;}
	.st2{fill:#2C2C2C;}
	.st3{fill:url(#SVGID_1_);}
	.st4{fill:#2E76BB;}
	.st5{fill:#F47F21;}
	.st6{fill:url(#SVGID_00000014594026328966538430000012169042837903857289_);}
	.st7{fill-rule:evenodd;clip-rule:evenodd;fill:#FEFEFE;}
	.st8{fill-rule:evenodd;clip-rule:evenodd;fill:url(#SVGID_00000002366152124397671550000017582657182939463298_);}
	.st9{fill-rule:evenodd;clip-rule:evenodd;fill:url(#SVGID_00000124151413704394438230000004839529027668556222_);}
	.st10{fill:#FEFEFE;}
	.st11{fill:#0089D1;}
	.st12{fill:#007CB8;}
	.st13{fill-rule:evenodd;clip-rule:evenodd;}
	.st14{fill-rule:evenodd;clip-rule:evenodd;fill:url(#SVGID_00000135660530250949534630000013922255596821072318_);}
	.st15{fill-rule:evenodd;clip-rule:evenodd;fill:url(#SVGID_00000153688576551375628350000016559867416581697686_);}
	.st16{fill-rule:evenodd;clip-rule:evenodd;fill:url(#SVGID_00000177462923060127775020000000797293542106112918_);}
	.st17{fill-rule:evenodd;clip-rule:evenodd;fill:url(#SVGID_00000149382258405691430250000007683546759517511614_);}
	.st18{fill-rule:evenodd;clip-rule:evenodd;fill:url(#SVGID_00000132801131926572787270000005140655604795431086_);}
	.st19{fill-rule:evenodd;clip-rule:evenodd;fill:url(#SVGID_00000123400507142835579430000012336135722333347471_);}
	.st20{fill-rule:evenodd;clip-rule:evenodd;fill:url(#SVGID_00000003068569660973757920000007317782300044296321_);}
	.st21{fill-rule:evenodd;clip-rule:evenodd;fill:url(#SVGID_00000001642485752384100740000011124367363218693533_);}
	.st22{fill-rule:evenodd;clip-rule:evenodd;fill:url(#SVGID_00000175295034749249646370000005576446295720690358_);}
	.st23{fill-rule:evenodd;clip-rule:evenodd;fill:url(#SVGID_00000160192575522443827250000015774868836701548199_);}
</style>
<g>
	<circle class="st11" cx="11.2" cy="11.2" r="11.2"/>
	<path class="st11" d="M89.2,47.2L59.1,17c-0.5-0.5-1.3-0.5-1.8,0l-19,19L27.9,25.6c-0.5-0.5-1.3-0.5-1.8,0L4.5,47.2
		c-0.8,0.8-0.2,2.2,0.9,2.2l8.8-0.1c0.3,0,0.7-0.1,0.9-0.4l12.2-12.2l12.5,12.5c0.2,0.2,0.6,0.4,0.9,0.4h7.9c1.1,0,1.7-1.4,0.9-2.2
		l-5.1-5.1l14.1-14.1L79.5,49c0.2,0.2,0.6,0.4,0.9,0.4h7.9C89.5,49.4,90,48,89.2,47.2z"/>
</g>
</svg>
