<?xml version="1.0" encoding="utf-8"?>
<!-- Generator: Adobe Illustrator 26.3.1, SVG Export Plug-In . SVG Version: 6.00 Build 0)  -->
<svg version="1.1" id="Layer_1" xmlns="http://www.w3.org/2000/svg" xmlns:xlink="http://www.w3.org/1999/xlink" x="0px" y="0px"
	 viewBox="0 0 280 120.7" style="enable-background:new 0 0 280 120.7;" xml:space="preserve">
<style type="text/css">
	.st0{fill:#26180F;}
	.st1{fill:#FF2116;}
	.st2{fill:#2C2C2C;}
	.st3{fill:url(#SVGID_1_);}
	.st4{fill:#2E76BB;}
	.st5{fill:#F47F21;}
	.st6{fill:url(#SVGID_00000142168713123154984680000013504776589957058492_);}
	.st7{fill-rule:evenodd;clip-rule:evenodd;fill:#FEFEFE;}
	.st8{fill-rule:evenodd;clip-rule:evenodd;fill:url(#SVGID_00000100378161451662698670000015038170583537690800_);}
	.st9{fill-rule:evenodd;clip-rule:evenodd;fill:url(#SVGID_00000142862020881039352400000003867033181723639176_);}
	.st10{fill:#FEFEFE;}
	.st11{fill:#0089D1;}
	.st12{fill:#007CB8;}
	.st13{fill-rule:evenodd;clip-rule:evenodd;}
	.st14{fill-rule:evenodd;clip-rule:evenodd;fill:url(#SVGID_00000011015086841979184050000015243114294070858132_);}
	.st15{fill-rule:evenodd;clip-rule:evenodd;fill:url(#SVGID_00000100369921062357079700000000149966373992788369_);}
	.st16{fill-rule:evenodd;clip-rule:evenodd;fill:url(#SVGID_00000121275145473731880050000005147236200631520918_);}
	.st17{fill-rule:evenodd;clip-rule:evenodd;fill:url(#SVGID_00000122709360125376008850000012766961602980491685_);}
	.st18{fill-rule:evenodd;clip-rule:evenodd;fill:url(#SVGID_00000008140999636784299950000010731797056435362957_);}
	.st19{fill-rule:evenodd;clip-rule:evenodd;fill:url(#SVGID_00000045602130275821735890000002462460463331158913_);}
	.st20{fill-rule:evenodd;clip-rule:evenodd;fill:url(#SVGID_00000163792637605614670330000001415429692583417264_);}
	.st21{fill-rule:evenodd;clip-rule:evenodd;fill:url(#SVGID_00000000180151078000473790000013577816846529203887_);}
	.st22{fill-rule:evenodd;clip-rule:evenodd;fill:url(#SVGID_00000098215583399962586340000013407083076913421699_);}
	.st23{fill-rule:evenodd;clip-rule:evenodd;fill:url(#SVGID_00000134947243200208059850000009917720616522041023_);}
</style>
<g>
	<path class="st1" d="M219.7,120.7H60.3C27.1,120.7,0,93.6,0,60.3C0,27.1,27.1,0,60.3,0h159.3C252.9,0,280,27.1,280,60.3
		C280,93.6,252.9,120.7,219.7,120.7z M60.3,10C32.6,10,10,32.6,10,60.3s22.6,50.3,50.3,50.3h159.3c27.8,0,50.3-22.6,50.3-50.3
		S247.4,10,219.7,10H60.3z"/>
</g>
<g>
	<g id="_x32_56_17_">
		<g>
			<path class="st1" d="M127.4,70c-1-1-2.5-1.8-4.6-2.4s-4.6-0.9-7.4-0.9c-1.6,0-3.4,0.1-5.2,0.3c-1.8,0.2-3.7,0.5-5.7,0.8
				c-1.2-1.1-2.3-2.3-3.5-3.6c-1.1-1.3-2.3-2.7-3.3-4.2c-0.7-1.1-1.5-2.2-2.2-3.3c-0.7-1.1-1.4-2.2-2-3.3c1-3.2,1.9-6.3,2.5-9.2
				c0.6-2.9,1-5.6,1-7.9c0-1.7-0.3-4-1.2-5.8c-0.9-1.9-2.5-3.3-5.1-3.3c-0.7,0-1.4,0.2-2,0.6c-0.6,0.4-1.2,0.9-1.5,1.5
				c-1,1.8-1.3,4.9-0.9,8.6c0.4,3.7,1.6,8,3.6,12.2c-0.7,2-1.4,4.1-2.2,6.3c-0.8,2.2-1.7,4.4-2.7,6.8c-0.8,2-1.7,3.9-2.6,5.9
				c-0.9,1.9-1.9,3.8-2.9,5.7C74,77,69.4,79.4,66.1,81.7c-3.3,2.3-5.3,4.5-5.6,6.6c-0.1,0.7-0.1,1.3,0.1,1.9
				c0.2,0.6,0.6,1.2,1.1,1.7c0.3,0.3,0.8,0.6,1.5,1c0.7,0.3,1.5,0.5,2.6,0.5c3.2,0,6.6-2.3,9.9-5.9c3.3-3.6,6.4-8.3,9-13.1
				c1.5-0.5,3-1.1,4.6-1.5c1.6-0.5,3.2-0.9,4.8-1.3c1.8-0.5,3.5-0.9,5.1-1.2c1.7-0.4,3.3-0.7,4.9-0.9c3.9,3.5,7.5,5.5,10.6,6.5
				c3.1,1.1,5.7,1.2,7.5,1.2c2.1,0,3.4-0.3,4.3-0.8s1.3-1.2,1.6-2c0.3-0.9,0.3-1.8,0.1-2.5C128.2,71,127.8,70.4,127.4,70z M88.4,30
				c0.3-0.5,0.6-0.8,1-1.1c0.4-0.3,0.8-0.4,1.3-0.4c1,0,1.7,0.4,2.2,1.2c0.5,0.8,0.8,2,0.8,3.6c0,1.6-0.3,3.8-0.8,6.4
				c-0.5,2.6-1.3,5.5-2.2,8.6c-1.9-4.4-2.9-8.3-3.1-11.4C87.3,33.7,87.7,31.3,88.4,30z M61.7,88.4c0.3-1.7,2.1-3.6,5-5.7
				c2.9-2,6.9-4.1,11.7-6.2c-2.7,4.6-5.4,8.4-7.9,10.9c-2.4,2.6-4.6,4-6.3,4c-0.3,0-0.6-0.1-0.9-0.2c-0.3-0.1-0.6-0.3-0.8-0.5
				c-0.3-0.3-0.6-0.7-0.7-1.2C61.7,89.2,61.7,88.8,61.7,88.4z M103,68.1c-1.4,0.3-2.9,0.6-4.5,0.9c-1.5,0.3-3.1,0.7-4.7,1.1
				c-1.4,0.3-2.7,0.7-4.1,1.1c-1.3,0.4-2.7,0.8-4,1.3c0.7-1.4,1.5-2.8,2.1-4.2c0.6-1.4,1.2-2.7,1.7-4c0.6-1.5,1.2-3,1.8-4.6
				c0.6-1.5,1.2-3.1,1.7-4.7c0.5,1,1.1,1.9,1.7,2.9c0.6,1,1.3,1.9,1.9,2.9c1,1.3,1.9,2.6,3,3.8C100.8,65.9,101.9,67,103,68.1
				L103,68.1L103,68.1L103,68.1L103,68.1z M105.7,68.9c3.3-0.6,6.3-0.9,8.9-0.9c2.6-0.1,4.6,0.1,5.9,0.4c1.2,0.3,2.2,0.8,2.8,1.6
				c0.6,0.7,0.8,1.7,0.6,2.8c-0.2,1.2-1,2-2.1,2.5c-1.1,0.5-2.5,0.6-4,0.2c-2.4-0.6-4.7-1.6-6.7-2.7
				C109.1,71.6,107.3,70.3,105.7,68.9z"/>
		</g>
	</g>
	<g>
		<path class="st2" d="M144.9,43.7c0-0.1,0-0.1,0-0.1s0-0.1,0-0.1c0,0,0.1-0.1,0.1-0.1c0,0,0.1,0,0.2,0c0.5,0,1.1,0,1.7-0.1
			c0.6,0,1.3,0,1.9,0c0.7,0,1.4,0,2.1,0c0.7,0,1.5,0,2.3,0c2.2,0,4,0.3,5.6,0.8s2.8,1.3,3.8,2.3c1,1,1.7,2.1,2.2,3.4
			c0.5,1.3,0.7,2.7,0.7,4.2c0,2-0.4,3.7-1,5.1c-0.6,1.4-1.6,2.6-2.7,3.5s-2.5,1.6-4,2c-1.5,0.4-3.2,0.7-4.9,0.7c-0.3,0-0.5,0-0.8,0
			s-0.4,0-0.6,0c-0.2,0-0.3,0-0.5,0s-0.4,0-0.6,0v3v3v3v3c0,0.1,0,0.1,0,0.2c0,0,0,0.1-0.1,0.1c0,0-0.1,0.1-0.1,0.1c0,0-0.1,0-0.2,0
			h-1.2h-1.2h-1.2h-1.2c-0.1,0-0.1,0-0.2,0c0,0-0.1,0-0.1-0.1c0,0-0.1-0.1-0.1-0.1c0,0,0-0.1,0-0.2v-8.4v-8.4V52
			C144.9,52,144.9,43.7,144.9,43.7z M150.4,60.2c0.2,0,0.3,0,0.5,0c0.2,0,0.3,0,0.5,0c0.2,0,0.4,0,0.6,0c0.2,0,0.5,0,0.8,0
			c0.9,0,1.8-0.1,2.6-0.3c0.8-0.2,1.6-0.5,2.2-1c0.6-0.5,1.2-1.1,1.6-1.9c0.4-0.8,0.6-1.8,0.6-3c0-1-0.2-1.8-0.4-2.6
			c-0.3-0.7-0.7-1.4-1.3-1.9s-1.2-0.9-2.1-1.1c-0.8-0.2-1.7-0.4-2.8-0.4c-0.3,0-0.6,0-0.9,0c-0.3,0-0.6,0-0.8,0c-0.3,0-0.5,0-0.7,0
			s-0.4,0-0.5,0v3v3v3V60.2z"/>
		<path class="st2" d="M171.1,43.7c0-0.1,0-0.1,0-0.2c0,0,0-0.1,0.1-0.1c0,0,0.1-0.1,0.1-0.1c0,0,0.1,0,0.2-0.1c0.3,0,0.7,0,1.3,0
			c0.5,0,1.2,0,1.9-0.1c0.7,0,1.5,0,2.3,0c0.8,0,1.7,0,2.6,0c2.6,0,4.9,0.4,6.8,1.2c1.9,0.8,3.6,1.9,4.9,3.4s2.3,3.2,2.9,5.2
			c0.6,2,1,4.3,1,6.7c0,3.4-0.6,6.2-1.5,8.6c-0.9,2.3-2.3,4.1-3.8,5.5c-1.6,1.4-3.3,2.3-5.1,2.9c-1.8,0.6-3.7,0.9-5.4,0.9
			c-0.7,0-1.4,0-2.1,0s-1.5,0-2.2,0c-0.7,0-1.4,0-2,0c-0.6,0-1.1,0-1.4,0c-0.1,0-0.1,0-0.1,0s-0.1,0-0.1-0.1c0,0,0-0.1-0.1-0.1
			c0-0.1,0-0.1,0-0.2v-8.3v-8.3v-8.3L171.1,43.7L171.1,43.7z M176.7,72.5c0.2,0,0.4,0,0.6,0c0.2,0,0.4,0,0.6,0c0.2,0,0.4,0,0.6,0
			c0.2,0,0.5,0,0.7,0c1.4,0,2.8-0.3,4-0.8c1.2-0.5,2.3-1.3,3.2-2.3c0.9-1.1,1.6-2.4,2.1-4c0.5-1.6,0.8-3.5,0.8-5.7
			c0-2.1-0.3-3.9-0.7-5.4c-0.5-1.5-1.2-2.7-2.1-3.7s-2-1.6-3.1-2.1c-1.2-0.4-2.5-0.6-3.9-0.6c-0.3,0-0.5,0-0.8,0c-0.2,0-0.5,0-0.7,0
			c-0.2,0-0.5,0-0.7,0s-0.4,0-0.7,0v6.1v6.1v6.1C176.7,66.4,176.7,72.5,176.7,72.5z"/>
		<path class="st2" d="M206.8,77c0,0.1,0,0.1,0,0.2c0,0.1,0,0.1-0.1,0.1c0,0-0.1,0.1-0.1,0.1c0,0-0.1,0-0.2,0h-1.2H204h-1.2h-1.2
			c-0.1,0-0.1,0-0.2,0c0,0-0.1,0-0.1-0.1c0,0-0.1-0.1-0.1-0.1c0-0.1,0-0.1,0-0.2v-8.4v-8.4V52v-8.4c0-0.1,0-0.1,0-0.2
			c0,0,0-0.1,0.1-0.1c0,0,0.1-0.1,0.1-0.1c0,0,0.1,0,0.2,0h4.3h4.3h4.3h4.3c0.1,0,0.1,0,0.2,0c0,0,0.1,0,0.1,0.1
			c0,0,0.1,0.1,0.1,0.1c0,0,0,0.1,0,0.2l0.1,1.1l0.1,1.1l0.1,1.1l0.1,1.1c0,0.1,0,0.1,0,0.2c0,0.1,0,0.1-0.1,0.1
			c0,0-0.1,0.1-0.1,0.1c-0.1,0-0.1,0-0.2,0H216H213h-3.1h-3.1v2.4v2.4v2.4v2.4h2.8h2.8h2.8h2.8c0.1,0,0.1,0,0.2,0c0,0,0.1,0,0.1,0.1
			c0,0,0.1,0.1,0.1,0.1c0,0,0,0.1,0,0.2v1.1v1.1v1.1v1.1c0,0.1,0,0.1,0,0.2c0,0,0,0.1-0.1,0.1s-0.1,0-0.1,0.1c0,0-0.1,0-0.2,0h-2.8
			h-2.8h-2.8h-2.8v3.5v3.5v3.5L206.8,77L206.8,77z"/>
	</g>
</g>
</svg>
