<?xml version="1.0" encoding="utf-8"?>
<!-- Generator: Adobe Illustrator 26.3.1, SVG Export Plug-In . SVG Version: 6.00 Build 0)  -->
<svg version="1.1" id="Layer_1" xmlns="http://www.w3.org/2000/svg" xmlns:xlink="http://www.w3.org/1999/xlink" x="0px" y="0px"
	 viewBox="0 0 280 120.7" style="enable-background:new 0 0 280 120.7;" xml:space="preserve">
<style type="text/css">
	.st0{fill:#26180F;}
	.st1{fill:#FF2116;}
	.st2{fill:#2C2C2C;}
	.st3{fill:url(#SVGID_1_);}
	.st4{fill:#2E76BB;}
	.st5{fill:#F47F21;}
	.st6{fill:url(#SVGID_00000071538504436378260480000017297500388801791139_);}
	.st7{fill-rule:evenodd;clip-rule:evenodd;fill:#FEFEFE;}
	.st8{fill-rule:evenodd;clip-rule:evenodd;fill:url(#SVGID_00000109712053500026446440000007752250042894589884_);}
	.st9{fill-rule:evenodd;clip-rule:evenodd;fill:url(#SVGID_00000125601032317987591420000010058461114589350590_);}
	.st10{fill:#FEFEFE;}
	.st11{fill:#0089D1;}
	.st12{fill:#007CB8;}
	.st13{fill-rule:evenodd;clip-rule:evenodd;}
	.st14{fill-rule:evenodd;clip-rule:evenodd;fill:url(#SVGID_00000144298379831659098060000004605940367768237445_);}
	.st15{fill-rule:evenodd;clip-rule:evenodd;fill:url(#SVGID_00000106106152862731139310000005929909880758006940_);}
	.st16{fill-rule:evenodd;clip-rule:evenodd;fill:url(#SVGID_00000150800331718983260780000003159563990773207984_);}
	.st17{fill-rule:evenodd;clip-rule:evenodd;fill:url(#SVGID_00000136407830805860513760000003787727541435700629_);}
	.st18{fill-rule:evenodd;clip-rule:evenodd;fill:url(#SVGID_00000072980123650729251060000003390141664779770258_);}
	.st19{fill-rule:evenodd;clip-rule:evenodd;fill:url(#SVGID_00000047764793508943802640000018049660854835560357_);}
	.st20{fill-rule:evenodd;clip-rule:evenodd;fill:url(#SVGID_00000147198514211780171660000014895639531501531571_);}
	.st21{fill-rule:evenodd;clip-rule:evenodd;fill:url(#SVGID_00000080193199981298882000000005233842253348303002_);}
	.st22{fill-rule:evenodd;clip-rule:evenodd;fill:url(#SVGID_00000139974185565243408850000012377328436364441781_);}
	.st23{fill-rule:evenodd;clip-rule:evenodd;fill:url(#SVGID_00000072245962741200341960000002394061950154201009_);}
</style>
<linearGradient id="SVGID_1_" gradientUnits="userSpaceOnUse" x1="0" y1="60.3489" x2="280" y2="60.3489">
	<stop  offset="0" style="stop-color:#85E31C"/>
	<stop  offset="0.3686" style="stop-color:#2CC02B"/>
	<stop  offset="1" style="stop-color:#298822"/>
</linearGradient>
<path class="st3" d="M219.7,0H60.3C27.1,0,0,27.1,0,60.3c0,33.3,27.1,60.3,60.3,60.3h159.3c33.3,0,60.3-27.1,60.3-60.3
	C280,27.1,252.9,0,219.7,0z"/>
<g>
	<g>
		<path class="st7" d="M104.5,93.1c0.6-0.6,1.8-1.8,2.5-2.5c0.7-0.7,1-0.9,1.3-1c0.3-0.1,0.5-0.2,0.7-0.1c0.2,0,0.3,0.1,0.4,0.3
			c0.1,0.1,0.1,0.3,0.2,0.5c0,0.2,0.1,0.6,0.2,1.1c0.1,0.5,0.2,1.1,0.2,1.7c0.1,0.6,0.1,1.1,0.1,1.4c0,0.3-0.1,0.5-0.2,0.7
			c-0.1,0.2-0.3,0.4-0.5,0.5c-0.2,0.1-0.4,0.2-0.6,0.3c-0.2,0-0.4,0-0.7,0c-0.3,0-0.6-0.1-0.9-0.1c-0.3,0-0.6-0.1-0.9-0.1
			c-0.3,0-0.6-0.1-0.9-0.1c-0.3-0.1-0.7-0.1-1-0.2c-0.3-0.1-0.4-0.1-0.5-0.2c-0.1-0.1-0.2-0.2-0.2-0.3c0-0.1-0.1-0.3,0-0.4
			c0-0.2,0.1-0.3,0.2-0.5C103.8,93.8,103.9,93.7,104.5,93.1L104.5,93.1z"/>
		<path class="st7" d="M53.3,30.2c2.3-2.1,4.3-2.4,6.2-0.9c30,30,45.1,44.9,45.1,44.9c1.9,1.8,3,3.6,3.4,5.5
			c0.3,1.8,0.5,3.5,0.7,5.2c0,0.3-0.1,0.5-0.2,0.8c-0.4,1-1.3,2-2.6,3c-3,2.9-4.4,4.3-4.4,4.3c-0.9,1-3,0.5-4.5,0.2
			c-3.4-0.7-3.7-0.1-6.5-2.8C60.4,60.5,45.5,45.6,45.5,45.6c-1.4-1.3-2.1-2.3-2.1-3c0-0.3,0-0.7,0-1c0.1-1.1,0.9-2.2,1.5-3.1
			c0.5-0.6,1.1-1.3,1.8-2C48.5,34.7,50.7,32.6,53.3,30.2L53.3,30.2z"/>
		
			<linearGradient id="SVGID_00000095308037339312202750000006666923771971936191_" gradientUnits="userSpaceOnUse" x1="35426.5156" y1="-4610.7974" x2="35916.6055" y2="-5097.2607" gradientTransform="matrix(2.834646e-02 0 0 -2.834646e-02 -949.7244 -98.4637)">
			<stop  offset="0" style="stop-color:#C6C6C6"/>
			<stop  offset="0.6118" style="stop-color:#E2E2E2"/>
			<stop  offset="1" style="stop-color:#FEFEFE"/>
		</linearGradient>
		<path style="fill-rule:evenodd;clip-rule:evenodd;fill:url(#SVGID_00000095308037339312202750000006666923771971936191_);" d="
			M49.7,33.7c-0.1,0.2-0.1,0.4-0.1,0.6c0,0.2,0.1,0.4,0.2,0.6c0.1,0.2,0.2,0.4,0.4,0.6c0.2,0.2,0.4,0.5,1.1,1.2
			c0.8,0.8,2.1,2.1,3.2,3.2c1.1,1.1,2.1,2.1,3.2,3.2c1.1,1.1,2.3,2.3,3,3c0.7,0.7,0.8,0.8,0.9,0.9c0.1,0.1,0.1,0.1,1.4-1.3
			c1.3-1.3,3.9-4,5.2-5.3c1.3-1.3,1.3-1.3,1.3-1.3c0,0,0,0-1.7-1.7c-1.6-1.6-4.9-4.9-6.6-6.6c-1.6-1.6-1.6-1.6-1.7-1.7
			c-0.1-0.1-0.3-0.2-0.5-0.3c-0.2-0.1-0.5-0.3-0.7-0.4c-0.3-0.1-0.5-0.2-0.8-0.2c-0.3,0-0.6,0-0.9,0s-0.5,0.1-0.8,0.2
			c-0.2,0.1-0.4,0.2-0.7,0.3c-0.3,0.1-0.6,0.3-0.9,0.6c-0.3,0.2-0.6,0.4-0.8,0.7c-0.3,0.2-0.5,0.4-0.8,0.7c-0.3,0.3-0.7,0.6-1.1,1
			c-0.4,0.4-0.8,0.8-1.2,1.1C50.1,33.3,49.8,33.5,49.7,33.7L49.7,33.7z"/>
		
			<linearGradient id="SVGID_00000039129260577316467420000000235004359802767283_" gradientUnits="userSpaceOnUse" x1="35904.9062" y1="-5306.9189" x2="37089.0391" y2="-6577.9614" gradientTransform="matrix(2.834646e-02 0 0 -2.834646e-02 -949.7244 -98.4637)">
			<stop  offset="0" style="stop-color:#C6C6C6"/>
			<stop  offset="0.6706" style="stop-color:#E2E2E2"/>
			<stop  offset="1" style="stop-color:#FEFEFE"/>
		</linearGradient>
		<path style="fill-rule:evenodd;clip-rule:evenodd;fill:url(#SVGID_00000039129260577316467420000000235004359802767283_);" d="
			M108.4,85.7c-0.2,0.5-0.5,0.9-0.8,1.3c-1.6-0.1-3-0.2-4-0.4c-1.9-0.1-4.1-1.4-6.6-3.8L65.3,51l-7.2,7.3l-1.6-1.6l15.2-15.2
			l33.9,33.7c1.2,1.3,2,2.8,2.4,4.5c0.4,3.2,0.7,4.9,0.7,4.9C108.7,84.9,108.6,85.3,108.4,85.7L108.4,85.7z"/>
	</g>
	<g>
		<path class="st10" d="M150.1,81.5c-2.8,0-5.3-0.4-7.6-1.3c-2.2-0.9-4.1-2.1-5.7-3.8c-1.6-1.7-2.7-3.7-3.6-6.1
			c-0.8-2.4-1.2-5.2-1.2-8.3c0-3.1,0.5-5.9,1.4-8.3c1-2.4,2.3-4.5,3.9-6.1c1.7-1.7,3.6-3,5.8-3.8c2.2-0.9,4.6-1.3,7.2-1.3
			c1.6,0,3,0.1,4.2,0.4c1.3,0.2,2.4,0.5,3.3,0.8c0.9,0.3,1.7,0.6,2.3,0.9c0.6,0.3,1,0.6,1.3,0.7l-2,5.6c-0.9-0.5-2.1-1.1-3.7-1.5
			c-1.6-0.5-3.3-0.7-5.2-0.7c-1.6,0-3.1,0.3-4.6,0.8c-1.4,0.6-2.6,1.4-3.7,2.5c-1,1.1-1.8,2.5-2.4,4.2c-0.6,1.7-0.9,3.7-0.9,5.9
			c0,2,0.2,3.8,0.7,5.5c0.5,1.7,1.1,3.1,2.1,4.3c0.9,1.2,2.1,2.1,3.6,2.8c1.4,0.7,3.2,1,5.2,1c2.4,0,4.4-0.2,5.9-0.7
			c1.5-0.5,2.7-0.9,3.5-1.4l1.8,5.6c-0.4,0.3-1,0.6-1.8,0.9c-0.7,0.3-1.6,0.6-2.6,0.8c-1,0.3-2.1,0.5-3.4,0.7
			C152.9,81.4,151.5,81.5,150.1,81.5z"/>
		<path class="st10" d="M199.8,61.9c0,3.2-0.5,6.1-1.5,8.5c-1,2.4-2.4,4.4-4.3,6c-1.9,1.6-4.1,2.8-6.7,3.6c-2.6,0.8-5.5,1.2-8.7,1.2
			c-1.5,0-3.2-0.1-5.1-0.2c-1.9-0.1-3.7-0.4-5.5-0.8V43.7c1.7-0.4,3.6-0.7,5.5-0.8c2-0.1,3.7-0.2,5.2-0.2c3.1,0,6,0.4,8.6,1.1
			c2.6,0.7,4.8,1.9,6.7,3.5s3.3,3.6,4.3,6C199.3,55.7,199.8,58.6,199.8,61.9z M174.8,75c0.4,0,0.9,0.1,1.6,0.1c0.6,0,1.5,0,2.7,0
			c4.6,0,8-1.2,10.3-3.5c2.3-2.3,3.4-5.6,3.4-9.8c0-4.3-1.1-7.5-3.3-9.8c-2.2-2.3-5.6-3.4-10.2-3.4c-2,0-3.5,0.1-4.3,0.2V75z"/>
		<path class="st10" d="M217.6,42.8c5.4,0,9.6,1,12.4,3c2.9,2,4.3,5,4.3,9.1c0,5.1-2.5,8.5-7.5,10.3c0.7,0.8,1.5,1.8,2.3,3
			c0.9,1.2,1.8,2.5,2.7,3.9c0.9,1.4,1.8,2.8,2.6,4.3c0.8,1.5,1.6,2.9,2.2,4.3H229c-0.7-1.3-1.4-2.6-2.2-3.9
			c-0.8-1.3-1.6-2.6-2.4-3.8c-0.8-1.2-1.6-2.4-2.4-3.5c-0.8-1.1-1.5-2.1-2.2-3c-0.5,0-0.9,0.1-1.3,0.1s-0.7,0-1,0h-3.3v14.2h-6.8
			v-37c1.7-0.4,3.4-0.6,5.3-0.7C214.5,42.8,216.2,42.8,217.6,42.8z M218.1,48.7c-1.4,0-2.8,0.1-4,0.2V61h3c1.7,0,3.1-0.1,4.4-0.3
			c1.3-0.2,2.3-0.5,3.2-1c0.8-0.5,1.5-1.1,1.9-1.9c0.4-0.8,0.6-1.8,0.6-3c0-1.2-0.2-2.1-0.6-2.9c-0.4-0.8-1.1-1.4-1.9-1.9
			c-0.8-0.5-1.8-0.8-2.9-1C220.7,48.8,219.5,48.7,218.1,48.7z"/>
	</g>
</g>
</svg>
