<?xml version="1.0" encoding="utf-8"?>
<!-- Generator: Adobe Illustrator 26.3.1, SVG Export Plug-In . SVG Version: 6.00 Build 0)  -->
<svg version="1.1" id="Layer_1" xmlns="http://www.w3.org/2000/svg" xmlns:xlink="http://www.w3.org/1999/xlink" x="0px" y="0px"
	 viewBox="0 0 280 120.7" style="enable-background:new 0 0 280 120.7;" xml:space="preserve">
<style type="text/css">
	.st0{fill:#26180F;}
	.st1{fill:#FF2116;}
	.st2{fill:#2C2C2C;}
	.st3{fill:url(#SVGID_1_);}
	.st4{fill:#2E76BB;}
	.st5{fill:#F47F21;}
	.st6{fill:url(#SVGID_00000126284923577313460390000014840202503560817309_);}
	.st7{fill-rule:evenodd;clip-rule:evenodd;fill:#FEFEFE;}
	.st8{fill-rule:evenodd;clip-rule:evenodd;fill:url(#SVGID_00000025415292943690490530000006766693729558883253_);}
	.st9{fill-rule:evenodd;clip-rule:evenodd;fill:url(#SVGID_00000011752103183149847870000002438181417537829311_);}
	.st10{fill:#FEFEFE;}
	.st11{fill:#0089D1;}
	.st12{fill:#007CB8;}
	.st13{fill-rule:evenodd;clip-rule:evenodd;}
	.st14{fill-rule:evenodd;clip-rule:evenodd;fill:url(#SVGID_00000166673282541042487490000005015768996628105631_);}
	.st15{fill-rule:evenodd;clip-rule:evenodd;fill:url(#SVGID_00000092447751967179070370000008540681982328630955_);}
	.st16{fill-rule:evenodd;clip-rule:evenodd;fill:url(#SVGID_00000009548818463502568650000014472843605106397862_);}
	.st17{fill-rule:evenodd;clip-rule:evenodd;fill:url(#SVGID_00000157306811109459416900000011961561991295527091_);}
	.st18{fill-rule:evenodd;clip-rule:evenodd;fill:url(#SVGID_00000112618406784476865500000017134957390939839923_);}
	.st19{fill-rule:evenodd;clip-rule:evenodd;fill:url(#SVGID_00000005226433431498199340000018228478208264306606_);}
	.st20{fill-rule:evenodd;clip-rule:evenodd;fill:url(#SVGID_00000007426543048576468800000003679020349746890411_);}
	.st21{fill-rule:evenodd;clip-rule:evenodd;fill:url(#SVGID_00000005950283722899616190000005744497845160495780_);}
	.st22{fill-rule:evenodd;clip-rule:evenodd;fill:url(#SVGID_00000108299599798107583710000015631563271108362168_);}
	.st23{fill-rule:evenodd;clip-rule:evenodd;fill:url(#SVGID_00000065753404952345801670000001972846053973666478_);}
</style>
<g>
	<path class="st0" d="M60.3,10C32.6,10,10,32.6,10,60.3s22.6,50.3,50.3,50.3h159.3c27.8,0,50.3-22.6,50.3-50.3S247.4,10,219.7,10
		H60.3z"/>
</g>
<g>
	<path class="st5" d="M219.7,120.7H60.3C27.1,120.7,0,93.6,0,60.3C0,27.1,27.1,0,60.3,0h159.3C252.9,0,280,27.1,280,60.3
		C280,93.6,252.9,120.7,219.7,120.7z M60.3,10C32.6,10,10,32.6,10,60.3s22.6,50.3,50.3,50.3h159.3c27.8,0,50.3-22.6,50.3-50.3
		S247.4,10,219.7,10H60.3z"/>
</g>
<g>
	<path class="st5" d="M169,47.3h-8.3c-0.5,0-0.6,0.2-0.6,0.6h0.1v41.5c0,0.4,0.2,0.7,0.7,0.7h8.2c0.5,0,0.6-0.2,0.6-0.6V47.9
		C169.6,47.4,169.4,47.3,169,47.3z"/>
	<path class="st5" d="M164.8,41.3c3.2,0,5.5-1.9,5.5-5.4c0-3.2-2.2-5.4-5.4-5.4c-3,0-5.4,2-5.4,5.4
		C159.5,39.4,161.7,41.3,164.8,41.3z"/>
	<path class="st5" d="M110.3,90.1h7.8c0.5,0,0.7-0.1,0.8-0.5l4.2-15.8h16.9l4.3,15.9c0.1,0.4,0.4,0.5,0.8,0.5h8.7
		c0.4,0,0.5-0.3,0.4-0.7l-16.8-56.9c-0.1-0.4-0.3-0.5-0.6-0.5h-11.1c-0.3,0-0.4,0.2-0.4,0.5c-0.1,2.6-0.3,3.4-0.5,4.4l-15,52.4
		C109.7,90,109.8,90.1,110.3,90.1z M131.3,40.5h0.1c1.3,6.2,4.8,18.9,6.3,24.8h-12.5C127.4,57.1,130.2,46.6,131.3,40.5z"/>
</g>
</svg>
