<?xml version="1.0" encoding="utf-8"?>
<!-- Generator: Adobe Illustrator 26.3.1, SVG Export Plug-In . SVG Version: 6.00 Build 0)  -->
<svg version="1.1" id="Layer_1" xmlns="http://www.w3.org/2000/svg" xmlns:xlink="http://www.w3.org/1999/xlink" x="0px" y="0px"
	 viewBox="0 0 280 120.7" style="enable-background:new 0 0 280 120.7;" xml:space="preserve">
<style type="text/css">
	.st0{fill:#26180F;}
	.st1{fill:#FF2116;}
	.st2{fill:#2C2C2C;}
	.st3{fill:url(#SVGID_1_);}
	.st4{fill:#2E76BB;}
	.st5{fill:#F47F21;}
	.st6{fill:url(#SVGID_00000143617053687069365620000004643913811462907041_);}
	.st7{fill-rule:evenodd;clip-rule:evenodd;fill:#FEFEFE;}
	.st8{fill-rule:evenodd;clip-rule:evenodd;fill:url(#SVGID_00000151527220995886735570000004779126333112965282_);}
	.st9{fill-rule:evenodd;clip-rule:evenodd;fill:url(#SVGID_00000081614657503224873360000018283198615683421870_);}
	.st10{fill:#FEFEFE;}
	.st11{fill:#0089D1;}
	.st12{fill:#007CB8;}
	.st13{fill-rule:evenodd;clip-rule:evenodd;}
	.st14{fill-rule:evenodd;clip-rule:evenodd;fill:url(#SVGID_00000032627935259084806970000010024032434848226202_);}
	.st15{fill-rule:evenodd;clip-rule:evenodd;fill:url(#SVGID_00000088843555031406221570000016070141109377760899_);}
	.st16{fill-rule:evenodd;clip-rule:evenodd;fill:url(#SVGID_00000163074145100948027780000010868771676628917671_);}
	.st17{fill-rule:evenodd;clip-rule:evenodd;fill:url(#SVGID_00000143601419732389985310000016468998553784140937_);}
	.st18{fill-rule:evenodd;clip-rule:evenodd;fill:url(#SVGID_00000135665264451856620820000006580362434759455383_);}
	.st19{fill-rule:evenodd;clip-rule:evenodd;fill:url(#SVGID_00000174573441400745465490000015239595083089166495_);}
	.st20{fill-rule:evenodd;clip-rule:evenodd;fill:url(#SVGID_00000089549253846171035050000008546996023783466893_);}
	.st21{fill-rule:evenodd;clip-rule:evenodd;fill:url(#SVGID_00000036933981265288817820000004429088926978357427_);}
	.st22{fill-rule:evenodd;clip-rule:evenodd;fill:url(#SVGID_00000092422743496112878270000002213196587558052482_);}
	.st23{fill-rule:evenodd;clip-rule:evenodd;fill:url(#SVGID_00000014624893308885672110000011803838659265558959_);}
</style>
<g>
	<linearGradient id="SVGID_1_" gradientUnits="userSpaceOnUse" x1="0" y1="60.3489" x2="280" y2="60.3489">
		<stop  offset="0" style="stop-color:#6F1013"/>
		<stop  offset="1" style="stop-color:#DE2027"/>
	</linearGradient>
	<path class="st3" d="M219.7,120.7H60.3C27.1,120.7,0,93.6,0,60.3C0,27.1,27.1,0,60.3,0h159.3C252.9,0,280,27.1,280,60.3
		C280,93.6,252.9,120.7,219.7,120.7z M60.3,10C32.6,10,10,32.6,10,60.3s22.6,50.3,50.3,50.3h159.3c27.8,0,50.3-22.6,50.3-50.3
		S247.4,10,219.7,10H60.3z"/>
</g>
<g>
	<path d="M124.1,60.3c0,3.4-0.5,6.3-1.6,8.8c-1.1,2.5-2.5,4.6-4.5,6.3c-1.9,1.7-4.3,2.9-7,3.7c-2.7,0.8-5.7,1.2-9,1.2
		c-1.6,0-3.4-0.1-5.4-0.2c-2-0.1-3.9-0.4-5.7-0.8V41.4c1.8-0.4,3.7-0.7,5.7-0.8c2-0.1,3.8-0.2,5.4-0.2c3.3,0,6.3,0.4,9,1.2
		s5,2,7,3.6c1.9,1.6,3.4,3.7,4.5,6.2C123.6,53.9,124.1,56.9,124.1,60.3z M98.1,74c0.4,0,1,0.1,1.6,0.1c0.7,0,1.6,0,2.8,0
		c4.8,0,8.3-1.2,10.7-3.6c2.3-2.4,3.5-5.8,3.5-10.2c0-4.4-1.1-7.8-3.4-10.2c-2.3-2.4-5.8-3.5-10.6-3.5c-2.1,0-3.6,0.1-4.5,0.2V74z"
		/>
	<path d="M140.8,74.6c2.6,0,4.4-0.4,5.6-1.3c1.2-0.9,1.7-2.1,1.7-3.7c0-0.9-0.2-1.7-0.6-2.4s-1-1.3-1.7-1.8
		c-0.7-0.5-1.6-1.1-2.7-1.5c-1.1-0.5-2.3-0.9-3.6-1.4c-1.4-0.5-2.7-1-3.9-1.6c-1.3-0.6-2.4-1.3-3.3-2.2c-1-0.9-1.7-1.9-2.3-3.1
		c-0.6-1.2-0.9-2.6-0.9-4.3c0-3.5,1.2-6.3,3.7-8.3c2.4-2,5.8-3,10-3c2.4,0,4.6,0.3,6.5,0.8c1.9,0.5,3.4,1.1,4.5,1.8l-2.2,5.7
		c-1.3-0.7-2.7-1.3-4.2-1.6c-1.5-0.4-3.1-0.6-4.7-0.6c-1.9,0-3.4,0.4-4.5,1.2c-1.1,0.8-1.6,1.9-1.6,3.3c0,0.9,0.2,1.6,0.5,2.2
		c0.4,0.6,0.9,1.2,1.5,1.7c0.7,0.5,1.4,0.9,2.3,1.4c0.9,0.4,1.8,0.8,2.9,1.2c1.8,0.7,3.5,1.4,4.9,2.1c1.4,0.7,2.7,1.5,3.7,2.5
		c1,1,1.8,2.1,2.3,3.4c0.5,1.3,0.8,2.9,0.8,4.7c0,3.5-1.2,6.3-3.7,8.2c-2.5,1.9-6.1,2.9-11,2.9c-1.6,0-3.1-0.1-4.4-0.3
		c-1.3-0.2-2.5-0.5-3.5-0.8c-1-0.3-1.9-0.6-2.7-0.9c-0.8-0.3-1.4-0.6-1.8-0.9l2.1-5.8c1,0.6,2.4,1.1,4.1,1.7
		C136.3,74.3,138.4,74.6,140.8,74.6z"/>
	<path d="M189,40.9V47h-12v32.9h-7.2V47h-12v-6.1H189z"/>
</g>
</svg>
