<?xml version="1.0" encoding="utf-8"?>
<!-- Generator: Adobe Illustrator 26.3.1, SVG Export Plug-In . SVG Version: 6.00 Build 0)  -->
<svg version="1.1" id="Layer_1" xmlns="http://www.w3.org/2000/svg" xmlns:xlink="http://www.w3.org/1999/xlink" x="0px" y="0px"
	 viewBox="0 0 193.3 67.6" style="enable-background:new 0 0 193.3 67.6;" xml:space="preserve">
<style type="text/css">
	.st0{fill:#26180F;}
	.st1{fill:#FF2116;}
	.st2{fill:#2C2C2C;}
	.st3{fill:url(#SVGID_1_);}
	.st4{fill:#2E76BB;}
	.st5{fill:#F47F21;}
	.st6{fill:url(#SVGID_00000135685224243757474390000011409856863645617040_);}
	.st7{fill-rule:evenodd;clip-rule:evenodd;fill:#FEFEFE;}
	.st8{fill-rule:evenodd;clip-rule:evenodd;fill:url(#SVGID_00000036959257480303889260000014613032530350639502_);}
	.st9{fill-rule:evenodd;clip-rule:evenodd;fill:url(#SVGID_00000041287382307070564450000006133348996240865694_);}
	.st10{fill:#FEFEFE;}
	.st11{fill:#0089D1;}
	.st12{fill:#007CB8;}
	.st13{fill-rule:evenodd;clip-rule:evenodd;}
	.st14{fill-rule:evenodd;clip-rule:evenodd;fill:url(#SVGID_00000008853941954150941290000002846157341867422376_);}
	.st15{fill-rule:evenodd;clip-rule:evenodd;fill:url(#SVGID_00000159451620312060512050000017763239271729177768_);}
	.st16{fill-rule:evenodd;clip-rule:evenodd;fill:url(#SVGID_00000164472689796575038300000014591274334057480577_);}
	.st17{fill-rule:evenodd;clip-rule:evenodd;fill:url(#SVGID_00000140016551488499156590000015638017504710285192_);}
	.st18{fill-rule:evenodd;clip-rule:evenodd;fill:url(#SVGID_00000109724428175693837250000013828964624102412943_);}
	.st19{fill-rule:evenodd;clip-rule:evenodd;fill:url(#SVGID_00000070114584396608993130000012375911915799206822_);}
	.st20{fill-rule:evenodd;clip-rule:evenodd;fill:url(#SVGID_00000030475451052586153230000004912093081776446386_);}
	.st21{fill-rule:evenodd;clip-rule:evenodd;fill:url(#SVGID_00000013875938661697623380000001279785112139394980_);}
	.st22{fill-rule:evenodd;clip-rule:evenodd;fill:url(#SVGID_00000081623489748635857320000010051590645086353034_);}
	.st23{fill-rule:evenodd;clip-rule:evenodd;fill:url(#SVGID_00000129165914112205944050000000736355507626575752_);}
</style>
<g>
	<g>
		<path class="st7" d="M61.2,64.7c0.6-0.6,1.8-1.8,2.5-2.5c0.7-0.7,1-0.9,1.3-1c0.3-0.1,0.5-0.2,0.7-0.1c0.2,0,0.3,0.1,0.4,0.3
			c0.1,0.1,0.1,0.3,0.2,0.5c0,0.2,0.1,0.6,0.2,1.1c0.1,0.5,0.2,1.1,0.2,1.7c0.1,0.6,0.1,1.1,0.1,1.4c0,0.3-0.1,0.5-0.2,0.7
			c-0.1,0.2-0.3,0.4-0.5,0.5c-0.2,0.1-0.4,0.2-0.6,0.3c-0.2,0-0.4,0-0.7,0c-0.3,0-0.6-0.1-0.9-0.1c-0.3,0-0.6-0.1-0.9-0.1
			c-0.3,0-0.6-0.1-0.9-0.1c-0.3-0.1-0.7-0.1-1-0.2c-0.3-0.1-0.4-0.1-0.5-0.2c-0.1-0.1-0.2-0.2-0.2-0.3c0-0.1-0.1-0.3,0-0.4
			c0-0.2,0.1-0.3,0.2-0.5C60.5,65.5,60.6,65.3,61.2,64.7L61.2,64.7z"/>
		<path class="st7" d="M9.9,1.8c2.3-2.1,4.3-2.4,6.2-0.9c30,30,45.1,44.9,45.1,44.9c1.9,1.8,3,3.6,3.4,5.5c0.3,1.8,0.5,3.5,0.7,5.2
			c0,0.3-0.1,0.5-0.2,0.8c-0.4,1-1.3,2-2.6,3c-3,2.9-4.4,4.3-4.4,4.3c-0.9,1-3,0.5-4.5,0.2c-3.4-0.7-3.7-0.1-6.5-2.8
			C17.1,32.2,2.1,17.2,2.1,17.2C0.7,16,0,15,0,14.3c0-0.3,0-0.7,0-1c0.1-1.1,0.9-2.2,1.5-3.1c0.5-0.6,1.1-1.3,1.8-2
			C5.2,6.4,7.4,4.3,9.9,1.8L9.9,1.8z"/>
		
			<linearGradient id="SVGID_1_" gradientUnits="userSpaceOnUse" x1="38695.9688" y1="-18184.4629" x2="39186.0547" y2="-18670.9258" gradientTransform="matrix(2.834646e-02 0 0 -2.834646e-02 -1085.7559 -511.568)">
			<stop  offset="0" style="stop-color:#C6C6C6"/>
			<stop  offset="0.6118" style="stop-color:#E2E2E2"/>
			<stop  offset="1" style="stop-color:#FEFEFE"/>
		</linearGradient>
		<path style="fill-rule:evenodd;clip-rule:evenodd;fill:url(#SVGID_1_);" d="M6.4,5.4C6.2,5.6,6.2,5.8,6.3,6c0,0.2,0.1,0.4,0.2,0.6
			C6.5,6.8,6.6,7,6.8,7.3C7,7.5,7.2,7.7,7.9,8.5c0.8,0.8,2.1,2.1,3.2,3.2c1.1,1.1,2.1,2.1,3.2,3.2c1.1,1.1,2.3,2.3,3,3
			c0.7,0.7,0.8,0.8,0.9,0.9c0.1,0.1,0.1,0.1,1.4-1.3c1.3-1.3,3.9-4,5.2-5.3c1.3-1.3,1.3-1.3,1.3-1.3c0,0,0,0-1.7-1.7
			c-1.6-1.6-4.9-4.9-6.6-6.6c-1.6-1.6-1.6-1.6-1.7-1.7c-0.1-0.1-0.3-0.2-0.5-0.3c-0.2-0.1-0.5-0.3-0.7-0.4c-0.3-0.1-0.5-0.2-0.8-0.2
			c-0.3,0-0.6,0-0.9,0s-0.5,0.1-0.8,0.2c-0.2,0.1-0.4,0.2-0.7,0.3c-0.3,0.1-0.6,0.3-0.9,0.6c-0.3,0.2-0.6,0.4-0.8,0.7
			C9.8,1.9,9.6,2.2,9.3,2.4C9,2.7,8.6,3.1,8.2,3.5C7.8,3.8,7.4,4.3,7,4.6C6.7,4.9,6.5,5.1,6.4,5.4L6.4,5.4z"/>
		
			<linearGradient id="SVGID_00000088835362885882765440000010457418238969065401_" gradientUnits="userSpaceOnUse" x1="39174.3555" y1="-18880.584" x2="40358.4922" y2="-20151.627" gradientTransform="matrix(2.834646e-02 0 0 -2.834646e-02 -1085.7559 -511.568)">
			<stop  offset="0" style="stop-color:#C6C6C6"/>
			<stop  offset="0.6706" style="stop-color:#E2E2E2"/>
			<stop  offset="1" style="stop-color:#FEFEFE"/>
		</linearGradient>
		<path style="fill-rule:evenodd;clip-rule:evenodd;fill:url(#SVGID_00000088835362885882765440000010457418238969065401_);" d="
			M65.1,57.3c-0.2,0.5-0.5,0.9-0.8,1.3c-1.6-0.1-3-0.2-4-0.4c-1.9-0.1-4.1-1.4-6.6-3.8L22,22.7l-7.2,7.3l-1.6-1.6l15.2-15.2
			l33.9,33.7c1.2,1.3,2,2.8,2.4,4.5c0.4,3.2,0.7,4.9,0.7,4.9C65.3,56.6,65.3,57,65.1,57.3L65.1,57.3z"/>
	</g>
	<g>
		<path class="st10" d="M106.7,53.1c-2.8,0-5.3-0.4-7.6-1.3C96.9,51,95,49.7,93.5,48c-1.6-1.7-2.7-3.7-3.6-6.1
			c-0.8-2.4-1.2-5.2-1.2-8.3c0-3.1,0.5-5.9,1.4-8.3c1-2.4,2.3-4.5,3.9-6.1c1.7-1.7,3.6-3,5.8-3.8c2.2-0.9,4.6-1.3,7.2-1.3
			c1.6,0,3,0.1,4.2,0.4c1.3,0.2,2.4,0.5,3.3,0.8c0.9,0.3,1.7,0.6,2.3,0.9c0.6,0.3,1,0.6,1.3,0.7l-2,5.6c-0.9-0.5-2.1-1.1-3.7-1.5
			c-1.6-0.5-3.3-0.7-5.2-0.7c-1.6,0-3.1,0.3-4.6,0.8c-1.4,0.6-2.6,1.4-3.7,2.5c-1,1.1-1.8,2.5-2.4,4.2c-0.6,1.7-0.9,3.7-0.9,5.9
			c0,2,0.2,3.8,0.7,5.5c0.5,1.7,1.1,3.1,2.1,4.3c0.9,1.2,2.1,2.1,3.6,2.8c1.4,0.7,3.2,1,5.2,1c2.4,0,4.4-0.2,5.9-0.7
			c1.5-0.5,2.7-0.9,3.5-1.4l1.8,5.6c-0.4,0.3-1,0.6-1.8,0.9c-0.7,0.3-1.6,0.6-2.6,0.8c-1,0.3-2.1,0.5-3.4,0.7
			C109.5,53.1,108.2,53.1,106.7,53.1z"/>
		<path class="st10" d="M156.5,33.5c0,3.2-0.5,6.1-1.5,8.5c-1,2.4-2.4,4.4-4.3,6s-4.1,2.8-6.7,3.6s-5.5,1.2-8.7,1.2
			c-1.5,0-3.2-0.1-5.1-0.2c-1.9-0.1-3.7-0.4-5.5-0.8V15.3c1.7-0.4,3.6-0.7,5.5-0.8c2-0.1,3.7-0.2,5.2-0.2c3.1,0,6,0.4,8.6,1.1
			c2.6,0.7,4.8,1.9,6.7,3.5s3.3,3.6,4.3,6C156,27.4,156.5,30.2,156.5,33.5z M131.4,46.7c0.4,0,0.9,0.1,1.6,0.1c0.6,0,1.5,0,2.7,0
			c4.6,0,8-1.2,10.3-3.5c2.3-2.3,3.4-5.6,3.4-9.8c0-4.3-1.1-7.5-3.3-9.8s-5.6-3.4-10.2-3.4c-2,0-3.5,0.1-4.3,0.2V46.7z"/>
		<path class="st10" d="M174.3,14.4c5.4,0,9.6,1,12.4,3c2.9,2,4.3,5,4.3,9.1c0,5.1-2.5,8.5-7.5,10.3c0.7,0.8,1.5,1.8,2.3,3
			c0.9,1.2,1.8,2.5,2.7,3.9c0.9,1.4,1.8,2.8,2.6,4.3c0.8,1.5,1.6,2.9,2.2,4.3h-7.6c-0.7-1.3-1.4-2.6-2.2-3.9
			c-0.8-1.3-1.6-2.6-2.4-3.8c-0.8-1.2-1.6-2.4-2.4-3.5c-0.8-1.1-1.5-2.1-2.2-3c-0.5,0-0.9,0.1-1.3,0.1s-0.7,0-1,0h-3.3v14.2h-6.8
			v-37c1.7-0.4,3.4-0.6,5.3-0.7C171.1,14.5,172.8,14.4,174.3,14.4z M174.8,20.3c-1.4,0-2.8,0.1-4,0.2v12.1h3c1.7,0,3.1-0.1,4.4-0.3
			c1.3-0.2,2.3-0.5,3.2-1c0.8-0.5,1.5-1.1,1.9-1.9c0.4-0.8,0.6-1.8,0.6-3c0-1.2-0.2-2.1-0.6-2.9c-0.4-0.8-1.1-1.4-1.9-1.9
			c-0.8-0.5-1.8-0.8-2.9-1C177.3,20.4,176.1,20.3,174.8,20.3z"/>
	</g>
</g>
</svg>
