<?xml version="1.0" encoding="utf-8"?>
<!-- Generator: Adobe Illustrator 26.3.1, SVG Export Plug-In . SVG Version: 6.00 Build 0)  -->
<svg version="1.1" id="Layer_1" xmlns="http://www.w3.org/2000/svg" xmlns:xlink="http://www.w3.org/1999/xlink" x="0px" y="0px"
	 viewBox="0 0 60.5 59.6" style="enable-background:new 0 0 60.5 59.6;" xml:space="preserve">
<style type="text/css">
	.st0{fill:#26180F;}
	.st1{fill:#FF2116;}
	.st2{fill:#2C2C2C;}
	.st3{fill:url(#SVGID_1_);}
	.st4{fill:#2E76BB;}
	.st5{fill:#F47F21;}
	.st6{fill:url(#SVGID_00000114795135679607019720000006302071153519599011_);}
	.st7{fill-rule:evenodd;clip-rule:evenodd;fill:#FEFEFE;}
	.st8{fill-rule:evenodd;clip-rule:evenodd;fill:url(#SVGID_00000000939681193183111290000014812039714944376972_);}
	.st9{fill-rule:evenodd;clip-rule:evenodd;fill:url(#SVGID_00000033370031085987449090000009609540961061666702_);}
	.st10{fill:#FEFEFE;}
	.st11{fill:#0089D1;}
	.st12{fill:#007CB8;}
	.st13{fill-rule:evenodd;clip-rule:evenodd;}
	.st14{fill-rule:evenodd;clip-rule:evenodd;fill:url(#SVGID_00000170265945474970100300000002950536094166174354_);}
	.st15{fill-rule:evenodd;clip-rule:evenodd;fill:url(#SVGID_00000019636146647069761080000003881556935201681026_);}
	.st16{fill-rule:evenodd;clip-rule:evenodd;fill:url(#SVGID_00000078020027437275134130000008902430227652101537_);}
	.st17{fill-rule:evenodd;clip-rule:evenodd;fill:url(#SVGID_00000142172654034987421600000017061888435744259752_);}
	.st18{fill-rule:evenodd;clip-rule:evenodd;fill:url(#SVGID_00000009586499001880149250000006694058068327658150_);}
	.st19{fill-rule:evenodd;clip-rule:evenodd;fill:url(#SVGID_00000040553933449448090410000006234790909957063080_);}
	.st20{fill-rule:evenodd;clip-rule:evenodd;fill:url(#SVGID_00000041259355832594154550000010639802764133957027_);}
	.st21{fill-rule:evenodd;clip-rule:evenodd;fill:url(#SVGID_00000103987363210256087590000011914880020001685920_);}
	.st22{fill-rule:evenodd;clip-rule:evenodd;fill:url(#SVGID_00000078755403663980831970000013429836886153012127_);}
	.st23{fill-rule:evenodd;clip-rule:evenodd;fill:url(#SVGID_00000176032011001243410510000017843004560818300351_);}
</style>
<g>
	<path class="st5" d="M59.3,16.7H51c-0.5,0-0.6,0.2-0.6,0.6h0.1v41.5c0,0.4,0.2,0.7,0.7,0.7h8.2c0.5,0,0.6-0.2,0.6-0.6V17.4
		C59.9,16.9,59.7,16.7,59.3,16.7z"/>
	<path class="st5" d="M55,10.7c3.2,0,5.5-1.9,5.5-5.4c0-3.2-2.2-5.4-5.4-5.4c-3,0-5.4,2-5.4,5.4C49.8,8.9,52,10.8,55,10.7z"/>
	<path class="st5" d="M0.6,59.6h7.8c0.5,0,0.7-0.1,0.8-0.5l4.2-15.8h16.9l4.3,15.9c0.1,0.4,0.4,0.5,0.8,0.5H44
		c0.4,0,0.5-0.3,0.4-0.7L27.7,2c-0.1-0.4-0.3-0.5-0.6-0.5H16c-0.3,0-0.4,0.2-0.4,0.5c-0.1,2.6-0.3,3.4-0.5,4.4L0,58.8
		C-0.1,59.4,0,59.6,0.6,59.6z M21.5,9.9h0.1c1.3,6.2,4.8,18.9,6.3,24.8H15.4C17.6,26.5,20.4,16.1,21.5,9.9z"/>
</g>
</svg>
