<?xml version="1.0" encoding="utf-8"?>
<!-- Generator: Adobe Illustrator 26.3.1, SVG Export Plug-In . SVG Version: 6.00 Build 0)  -->
<svg version="1.1" id="Layer_1" xmlns="http://www.w3.org/2000/svg" xmlns:xlink="http://www.w3.org/1999/xlink" x="0px" y="0px"
	 viewBox="0 0 601.7 120.7" style="enable-background:new 0 0 601.7 120.7;" xml:space="preserve">
<style type="text/css">
	.st0{fill:#26180F;}
	.st1{fill:#FF2116;}
	.st2{fill:#2C2C2C;}
	.st3{fill:url(#SVGID_1_);}
	.st4{fill:#2E76BB;}
	.st5{fill:#F47F21;}
	.st6{fill:url(#SVGID_00000040537796399380806390000004934905944010637476_);}
	.st7{fill-rule:evenodd;clip-rule:evenodd;fill:#FEFEFE;}
	.st8{fill-rule:evenodd;clip-rule:evenodd;fill:url(#SVGID_00000152953658020127255050000001675994768324030631_);}
	.st9{fill-rule:evenodd;clip-rule:evenodd;fill:url(#SVGID_00000065071745673032607780000018310288688865796483_);}
	.st10{fill:#FEFEFE;}
	.st11{fill:#0089D1;}
	.st12{fill:#007CB8;}
	.st13{fill-rule:evenodd;clip-rule:evenodd;}
	.st14{fill-rule:evenodd;clip-rule:evenodd;fill:url(#SVGID_00000076600866434295963580000001054551316227004559_);}
	.st15{fill-rule:evenodd;clip-rule:evenodd;fill:url(#SVGID_00000057131471323954122780000017492421778913810588_);}
	.st16{fill-rule:evenodd;clip-rule:evenodd;fill:url(#SVGID_00000181780411524340379090000016753486439948075398_);}
	.st17{fill-rule:evenodd;clip-rule:evenodd;fill:url(#SVGID_00000101819117249529952030000006648890044918286782_);}
	.st18{fill-rule:evenodd;clip-rule:evenodd;fill:url(#SVGID_00000070832866957731533870000015504605322144113589_);}
	.st19{fill-rule:evenodd;clip-rule:evenodd;fill:url(#SVGID_00000099641429857797624110000002835728018251539382_);}
	.st20{fill-rule:evenodd;clip-rule:evenodd;fill:url(#SVGID_00000158726707838921699100000014611216956675744151_);}
	.st21{fill-rule:evenodd;clip-rule:evenodd;fill:url(#SVGID_00000068647460436837852250000000135021833820658337_);}
	.st22{fill-rule:evenodd;clip-rule:evenodd;fill:url(#SVGID_00000041258929346543458840000002394368681975782059_);}
	.st23{fill-rule:evenodd;clip-rule:evenodd;fill:url(#SVGID_00000134238221169690299110000002186601081747945141_);}
</style>
<g>
	<path class="st4" d="M541.4,120.7h-481C27.1,120.7,0,93.6,0,60.3C0,27.1,27.1,0,60.3,0h481c33.3,0,60.3,27.1,60.3,60.3
		C601.7,93.6,574.7,120.7,541.4,120.7z M60.3,10C32.6,10,10,32.6,10,60.3s22.6,50.3,50.3,50.3h481c27.8,0,50.3-22.6,50.3-50.3
		S569.1,10,541.4,10H60.3z"/>
</g>
<g>
	<path d="M69.6,69.3c-0.3-0.8-0.5-1.5-0.8-2.3c-0.3-0.8-0.6-1.5-0.8-2.3h-8.3c-0.3,0.8-0.5,1.6-0.8,2.3c-0.3,0.8-0.5,1.5-0.8,2.3
		h-3.7c0.7-2.1,1.4-4,2.1-5.8c0.7-1.8,1.3-3.5,1.9-5c0.6-1.6,1.3-3.1,1.9-4.5c0.6-1.4,1.3-2.8,1.9-4.2h3.4c0.7,1.4,1.3,2.8,1.9,4.2
		c0.6,1.4,1.2,2.9,1.9,4.5c0.6,1.6,1.3,3.3,2,5c0.7,1.8,1.4,3.7,2.1,5.8H69.6z M63.9,53.5c-0.4,1-0.9,2.2-1.5,3.6
		c-0.6,1.4-1.1,3-1.7,4.7h6.5c-0.6-1.7-1.2-3.2-1.8-4.7S64.3,54.5,63.9,53.5z"/>
	<path d="M88.3,66.3v3.1H75.9V49.7h3.6v16.5H88.3z"/>
	<path d="M103.4,66.3v3.1H91.1V49.7h3.6v16.5H103.4z"/>
	<path d="M112.4,50.6l3.4-0.6v4.5h5.3v2.9h-5.3v6c0,1.2,0.2,2,0.6,2.5c0.4,0.5,1,0.8,1.9,0.8c0.6,0,1.2-0.1,1.7-0.2
		c0.5-0.1,0.9-0.3,1.1-0.4l0.6,2.7c-0.4,0.2-0.9,0.3-1.6,0.5c-0.6,0.2-1.4,0.3-2.3,0.3c-1.1,0-1.9-0.1-2.6-0.4
		c-0.7-0.3-1.3-0.7-1.7-1.2c-0.4-0.5-0.7-1.2-0.9-2c-0.2-0.8-0.3-1.6-0.3-2.6V50.6z"/>
	<path d="M137.5,61.9c0,1.2-0.2,2.2-0.5,3.2c-0.3,1-0.8,1.8-1.4,2.5s-1.4,1.2-2.2,1.6s-1.8,0.6-2.9,0.6c-1.1,0-2-0.2-2.9-0.6
		c-0.9-0.4-1.6-0.9-2.2-1.6s-1.1-1.5-1.5-2.5c-0.3-1-0.5-2-0.5-3.2c0-1.2,0.2-2.2,0.5-3.2c0.3-1,0.8-1.8,1.5-2.4
		c0.6-0.7,1.4-1.2,2.2-1.6c0.9-0.4,1.8-0.6,2.9-0.6c1,0,2,0.2,2.9,0.6c0.9,0.4,1.6,0.9,2.2,1.6s1.1,1.5,1.5,2.4
		C137.3,59.7,137.5,60.8,137.5,61.9z M133.9,61.9c0-1.5-0.3-2.6-0.9-3.5c-0.6-0.9-1.5-1.3-2.6-1.3c-1.1,0-2,0.4-2.6,1.3
		c-0.6,0.9-0.9,2-0.9,3.5c0,1.5,0.3,2.7,0.9,3.5c0.6,0.9,1.5,1.3,2.6,1.3c1.1,0,2-0.4,2.6-1.3C133.6,64.6,133.9,63.4,133.9,61.9z"/>
	<path d="M160.9,62c0,1.2-0.2,2.3-0.5,3.2c-0.3,1-0.8,1.8-1.5,2.4c-0.7,0.7-1.4,1.2-2.4,1.6c-0.9,0.4-2,0.5-3.1,0.5
		c-1.1,0-2.2-0.1-3.2-0.3c-1-0.2-1.9-0.4-2.6-0.6V48l3.4-0.6v7.7c0.4-0.2,0.9-0.4,1.5-0.6c0.6-0.2,1.2-0.3,1.9-0.3
		c1,0,2,0.2,2.8,0.6s1.5,0.9,2.1,1.6s1,1.5,1.3,2.4C160.8,59.8,160.9,60.8,160.9,62z M157.4,61.9c0-1.5-0.3-2.6-0.9-3.5
		c-0.6-0.8-1.5-1.3-2.7-1.3c-0.6,0-1.1,0.1-1.6,0.3s-0.9,0.4-1.2,0.6v8.5c0.2,0.1,0.6,0.1,0.9,0.2c0.4,0,0.9,0.1,1.4,0.1
		c1.3,0,2.3-0.4,3-1.3C157,64.6,157.4,63.4,157.4,61.9z"/>
	<path d="M163.6,62c0-1.3,0.2-2.4,0.6-3.4c0.4-1,0.9-1.8,1.5-2.4c0.6-0.7,1.4-1.1,2.2-1.5c0.8-0.3,1.7-0.5,2.5-0.5
		c2,0,3.6,0.6,4.8,1.9c1.1,1.3,1.7,3.2,1.7,5.7c0,0.2,0,0.4,0,0.6c0,0.2,0,0.4,0,0.6h-9.8c0.1,1.2,0.5,2.1,1.3,2.8
		c0.7,0.7,1.8,1,3.2,1c0.8,0,1.6-0.1,2.3-0.2c0.7-0.2,1.2-0.3,1.6-0.5l0.5,2.8c-0.2,0.1-0.4,0.2-0.8,0.3s-0.7,0.2-1.1,0.3
		c-0.4,0.1-0.9,0.2-1.4,0.2c-0.5,0.1-1,0.1-1.5,0.1c-1.3,0-2.4-0.2-3.4-0.6c-1-0.4-1.8-0.9-2.4-1.6c-0.6-0.7-1.1-1.5-1.4-2.4
		S163.6,63.1,163.6,62z M173.5,60.5c0-0.5-0.1-0.9-0.2-1.3c-0.1-0.4-0.3-0.8-0.6-1.1c-0.3-0.3-0.6-0.6-0.9-0.7
		c-0.4-0.2-0.8-0.3-1.3-0.3c-0.5,0-1,0.1-1.4,0.3c-0.4,0.2-0.7,0.5-1,0.8c-0.3,0.3-0.5,0.7-0.6,1.1c-0.2,0.4-0.3,0.8-0.3,1.3H173.5z
		"/>
	<path d="M193.2,47.4c0.8,0,1.5,0.1,2.1,0.2c0.6,0.1,1.1,0.3,1.4,0.4l-0.7,2.8c-0.3-0.2-0.7-0.3-1.1-0.4c-0.4-0.1-0.9-0.1-1.4-0.1
		c-0.5,0-1,0.1-1.4,0.2c-0.4,0.2-0.7,0.4-0.9,0.7c-0.2,0.3-0.4,0.6-0.5,1c-0.1,0.4-0.1,0.8-0.1,1.3v1h5.4v2.9h-5.4v11.9h-3.4V53.5
		c0-1.9,0.5-3.4,1.5-4.5C189.7,47.9,191.2,47.4,193.2,47.4z"/>
	<path d="M211.6,61.9c0,1.2-0.2,2.2-0.5,3.2c-0.3,1-0.8,1.8-1.4,2.5s-1.4,1.2-2.2,1.6s-1.8,0.6-2.9,0.6c-1.1,0-2-0.2-2.9-0.6
		c-0.9-0.4-1.6-0.9-2.2-1.6s-1.1-1.5-1.5-2.5c-0.3-1-0.5-2-0.5-3.2c0-1.2,0.2-2.2,0.5-3.2c0.3-1,0.8-1.8,1.5-2.4
		c0.6-0.7,1.4-1.2,2.2-1.6c0.9-0.4,1.8-0.6,2.9-0.6c1,0,2,0.2,2.9,0.6c0.9,0.4,1.6,0.9,2.2,1.6s1.1,1.5,1.5,2.4
		C211.4,59.7,211.6,60.8,211.6,61.9z M208.1,61.9c0-1.5-0.3-2.6-0.9-3.5c-0.6-0.9-1.5-1.3-2.6-1.3c-1.1,0-2,0.4-2.6,1.3
		c-0.6,0.9-0.9,2-0.9,3.5c0,1.5,0.3,2.7,0.9,3.5c0.6,0.9,1.5,1.3,2.6,1.3c1.1,0,2-0.4,2.6-1.3C207.8,64.6,208.1,63.4,208.1,61.9z"/>
	<path d="M223.6,57.6c-0.3-0.1-0.7-0.2-1.2-0.3c-0.5-0.1-1.1-0.2-1.7-0.2c-0.4,0-0.8,0-1.2,0.1s-0.7,0.1-0.9,0.2v11.9h-3.4V55.3
		c0.7-0.2,1.5-0.5,2.5-0.7c1-0.2,2.1-0.3,3.3-0.3c0.2,0,0.5,0,0.8,0s0.6,0.1,0.9,0.1s0.6,0.1,0.9,0.2c0.3,0.1,0.5,0.1,0.7,0.2
		L223.6,57.6z"/>
</g>
<g>
	<g>
		<path d="M314.2,54.2c1.1,0,2.1,0.1,2.9,0.4c0.8,0.3,1.4,0.7,1.9,1.2c0.5,0.5,0.8,1.1,1,1.9c0.2,0.7,0.3,1.5,0.3,2.4v9
			c-0.5,0.1-1.3,0.3-2.4,0.4c-1.1,0.2-2.3,0.2-3.6,0.2c-0.9,0-1.7-0.1-2.4-0.3s-1.4-0.4-1.9-0.8c-0.5-0.4-0.9-0.9-1.2-1.5
			c-0.3-0.6-0.4-1.3-0.4-2.2c0-0.8,0.2-1.6,0.5-2.2c0.3-0.6,0.8-1.1,1.3-1.4c0.6-0.4,1.2-0.6,2-0.8s1.5-0.2,2.3-0.2
			c0.4,0,0.8,0,1.2,0.1c0.4,0,0.9,0.1,1.3,0.2V60c0-0.4,0-0.8-0.1-1.1c-0.1-0.4-0.3-0.7-0.5-0.9c-0.2-0.3-0.5-0.5-0.9-0.6
			c-0.4-0.2-0.9-0.2-1.5-0.2c-0.8,0-1.5,0.1-2.2,0.2s-1.2,0.2-1.6,0.4l-0.4-2.8c0.4-0.2,1.1-0.3,1.9-0.5
			C312.4,54.3,313.3,54.2,314.2,54.2z M314.5,66.9c1.1,0,1.9-0.1,2.4-0.2V63c-0.2-0.1-0.5-0.1-0.8-0.2s-0.8-0.1-1.2-0.1
			c-0.4,0-0.8,0-1.1,0.1s-0.7,0.2-1,0.3c-0.3,0.2-0.6,0.4-0.8,0.6c-0.2,0.3-0.3,0.6-0.3,1c0,0.8,0.3,1.4,0.8,1.7
			C312.9,66.8,313.6,66.9,314.5,66.9z"/>
		<path d="M324.4,55c0.7-0.2,1.5-0.4,2.6-0.5c1.1-0.2,2.2-0.3,3.5-0.3c1.2,0,2.2,0.2,3,0.5c0.8,0.3,1.5,0.8,1.9,1.4
			c0.5,0.6,0.8,1.3,1,2.1c0.2,0.8,0.3,1.8,0.3,2.8v8.3h-3.4v-7.8c0-0.8-0.1-1.5-0.2-2c-0.1-0.6-0.3-1-0.5-1.4
			c-0.2-0.3-0.6-0.6-1-0.8c-0.4-0.2-0.9-0.2-1.5-0.2c-0.4,0-0.9,0-1.4,0.1c-0.5,0.1-0.8,0.1-1,0.1v11.9h-3.4V55z"/>
		<path d="M353.5,68.9c-0.7,0.2-1.5,0.4-2.6,0.6c-1,0.2-2.1,0.3-3.2,0.3c-1.2,0-2.2-0.2-3.1-0.5c-0.9-0.4-1.7-0.9-2.4-1.5
			c-0.7-0.7-1.2-1.5-1.5-2.4c-0.3-1-0.5-2-0.5-3.2c0-1.2,0.1-2.2,0.4-3.2c0.3-1,0.7-1.8,1.3-2.4c0.6-0.7,1.3-1.2,2.1-1.6
			c0.8-0.4,1.7-0.6,2.8-0.6c0.7,0,1.3,0.1,1.9,0.3s1,0.4,1.4,0.6V48l3.4-0.6V68.9z M343.6,61.9c0,1.5,0.4,2.7,1.1,3.6
			c0.7,0.9,1.7,1.3,3,1.3c0.5,0,1,0,1.4-0.1c0.4,0,0.7-0.1,0.9-0.2V58c-0.3-0.2-0.7-0.4-1.2-0.6c-0.5-0.2-1-0.3-1.6-0.3
			c-1.2,0-2.2,0.4-2.7,1.3S343.6,60.5,343.6,61.9z"/>
		<path d="M377.8,69.4c-0.6-1.1-1.4-2.2-2.1-3.5c-0.8-1.2-1.6-2.5-2.5-3.7c-0.8-1.3-1.7-2.5-2.6-3.6c-0.9-1.2-1.7-2.2-2.5-3.2v14
			h-3.5V49.7h2.9c0.8,0.8,1.6,1.7,2.4,2.8c0.9,1.1,1.7,2.2,2.6,3.4c0.9,1.2,1.7,2.3,2.5,3.5s1.6,2.3,2.2,3.3v-13h3.5v19.6H377.8z"/>
		<path d="M403.7,59.5c0,1.7-0.2,3.2-0.8,4.4s-1.2,2.4-2,3.2s-1.9,1.5-3,1.9s-2.4,0.7-3.7,0.7c-1.3,0-2.5-0.2-3.7-0.7
			c-1.2-0.4-2.2-1.1-3-1.9c-0.9-0.9-1.5-1.9-2.1-3.2c-0.5-1.3-0.8-2.8-0.8-4.4s0.3-3.2,0.8-4.4c0.5-1.3,1.2-2.3,2.1-3.2s1.9-1.5,3-2
			s2.4-0.7,3.6-0.7s2.5,0.2,3.6,0.7s2.2,1.1,3,2s1.5,1.9,2.1,3.2C403.5,56.4,403.7,57.9,403.7,59.5z M388.4,59.5
			c0,1.1,0.1,2.1,0.4,2.9c0.3,0.9,0.6,1.6,1.1,2.2c0.5,0.6,1.1,1.1,1.8,1.4c0.7,0.3,1.5,0.5,2.4,0.5c0.9,0,1.7-0.2,2.4-0.5
			c0.7-0.3,1.3-0.8,1.8-1.4c0.5-0.6,0.9-1.4,1.1-2.2c0.3-0.9,0.4-1.9,0.4-2.9c0-1.1-0.1-2.1-0.4-2.9c-0.3-0.9-0.6-1.6-1.1-2.2
			c-0.5-0.6-1.1-1.1-1.8-1.4c-0.7-0.3-1.5-0.5-2.4-0.5c-0.9,0-1.7,0.2-2.4,0.5c-0.7,0.3-1.3,0.8-1.8,1.4s-0.9,1.4-1.1,2.2
			C388.6,57.5,388.4,58.5,388.4,59.5z"/>
		<path d="M420.6,49.7v3.1h-6v16.5H411V52.8h-6v-3.1H420.6z"/>
	</g>
</g>
<g>
	<path id="path5" class="st4" d="M264.9,39.4c9-1.4,18.1-2.7,27.2-3.9c0,7.9,0,15.9,0,23.8c-9.1,0-18.1,0.2-27.2,0.2
		C264.9,52.8,264.9,46.1,264.9,39.4L264.9,39.4z"/>
	<path id="path7" class="st4" d="M242,42.6c6.8-1.1,13.6-2,20.5-2.8c0,6.6,0,13.2,0,19.7c-6.8,0-13.7,0.1-20.5,0.1V42.6L242,42.6z"
		/>
	<path id="path29" class="st4" d="M242,61.7c6.8,0,13.7,0.1,20.5,0.1c0,6.6,0,13.2,0,19.8c-6.8-1-13.7-1.9-20.5-2.8V61.7z"/>
	<path id="path31" class="st4" d="M264.9,62c9.1,0,18.1,0,27.2,0c0,7.9,0,15.8,0,23.8c-9-1.4-18.1-2.6-27.2-3.8
		C264.9,75.2,264.9,68.6,264.9,62z"/>
</g>
<g>
	<g>
		<path class="st13" d="M523.7,71.7h-3.1l-0.6-10.9c-0.3-5-0.4-8.6-0.4-10.6h-0.1c-0.8,3-1.8,6.1-3,9.4l-4.3,12h-2.4l-3.9-11.8
			c-1.2-3.6-2.1-6.8-2.8-9.6H503c-0.1,3.6-0.3,7.2-0.5,10.9l-0.7,10.6h-3l1.7-24.8h4l4.1,12c1,2.8,1.8,5.5,2.5,8.4h0.1
			c0.7-2.7,1.5-5.5,2.6-8.4l4.3-12h4.1L523.7,71.7z"/>
		<path class="st13" d="M540.7,71.7h-2.9l-0.3-2.2h-0.1c-1.2,1.7-3,2.6-5.3,2.6c-1.7,0-3-0.5-4-1.6c-0.9-1-1.4-2.1-1.4-3.5
			c0-2.2,0.9-3.8,2.7-5c1.8-1.1,4.4-1.7,7.8-1.7V60c0-2.7-1.3-4.1-4-4.1c-1.7,0-3.2,0.4-4.5,1.3L528,55c1.6-1,3.5-1.5,5.8-1.5
			c4.4,0,6.6,2.4,6.6,7.2v6.7C540.4,69.2,540.5,70.6,540.7,71.7 M537.3,65.7v-3.1c-4.9-0.1-7.3,1.2-7.3,4c0,1,0.3,1.8,0.8,2.3
			c0.6,0.5,1.3,0.8,2.1,0.8c1.1,0,2-0.3,2.8-0.9c0.7-0.5,1.2-1.2,1.4-2C537.2,66.4,537.3,66.1,537.3,65.7z"/>
		<path class="st13" d="M557.4,54.4l-0.7,2.5c-1-0.6-2.2-0.8-3.7-0.8c-1.9,0-3.5,0.7-4.6,2c-1.1,1.2-1.6,2.8-1.6,4.8
			c0,2,0.6,3.6,1.7,4.8c1.1,1.2,2.6,1.8,4.4,1.8c1.3,0,2.6-0.3,3.8-0.8l0.5,2.4c-1.4,0.6-3,1-4.9,1c-2.7,0-4.8-0.8-6.4-2.5
			c-1.6-1.6-2.4-3.8-2.4-6.6c0-2.8,0.9-5,2.6-6.8c1.7-1.8,4-2.7,6.8-2.7C554.8,53.5,556.2,53.8,557.4,54.4z"/>
	</g>
	<g>
		<linearGradient id="SVGID_1_" gradientUnits="userSpaceOnUse" x1="474.2356" y1="36.6293" x2="474.2356" y2="81.7719">
			<stop  offset="0" style="stop-color:#DEF0FA"/>
			<stop  offset="1" style="stop-color:#9ED1EB"/>
		</linearGradient>
		<path style="fill-rule:evenodd;clip-rule:evenodd;fill:url(#SVGID_1_);" d="M457.7,63h10.4c-1.6,6.3-1.2,12.5-0.1,18.8h22.6V36.6
			h-24.2C462.1,44,458.1,51.8,457.7,63z"/>
		
			<linearGradient id="SVGID_00000136381687653042810030000001241485010093365416_" gradientUnits="userSpaceOnUse" x1="476.0091" y1="37.6393" x2="476.0091" y2="47.6645">
			<stop  offset="0" style="stop-color:#F2FAFA"/>
			<stop  offset="1" style="stop-color:#E3F0F5"/>
		</linearGradient>
		<path style="fill-rule:evenodd;clip-rule:evenodd;fill:url(#SVGID_00000136381687653042810030000001241485010093365416_);" d="
			M461.3,46.2c9.8-0.1,19.4,0.4,29.4,1.6V36.6h-24.3L461.3,46.2z"/>
		
			<linearGradient id="SVGID_00000165222223928478648560000006833934486917515678_" gradientUnits="userSpaceOnUse" x1="451.7225" y1="36.6293" x2="451.7225" y2="81.7719">
			<stop  offset="0" style="stop-color:#8FD4FF"/>
			<stop  offset="1" style="stop-color:#0873F7"/>
		</linearGradient>
		<path style="fill-rule:evenodd;clip-rule:evenodd;fill:url(#SVGID_00000165222223928478648560000006833934486917515678_);" d="
			M435.4,36.6v45.1H468c-1.6-6.4-1.6-12.8,0-19.2c-1.1,0.8-9-0.6-10.1,0.2c0.3-10,4.1-18.2,8.5-26.2H435.4z"/>
		
			<linearGradient id="SVGID_00000017499888275761725980000000124270645933612427_" gradientUnits="userSpaceOnUse" x1="450.945" y1="37.6954" x2="450.945" y2="47.6645">
			<stop  offset="0" style="stop-color:#CFF5F5"/>
			<stop  offset="1" style="stop-color:#6ED4FF"/>
		</linearGradient>
		<path style="fill-rule:evenodd;clip-rule:evenodd;fill:url(#SVGID_00000017499888275761725980000000124270645933612427_);" d="
			M435.4,47.9c9.2-1.2,17.1-1.6,25.8-1.7l5.3-9.6h-31.1V47.9z"/>
		<g>
			<g>
				<rect x="448.8" y="43.5" width="2.9" height="6.8"/>
			</g>
			<g>
				<rect x="472.6" y="43.5" width="2.9" height="6.8"/>
			</g>
			<path d="M482.7,69.4l-1.6-2.2c-0.3,0.2-1.9,1-3,1.4c-2.1,0.8-5.3,1.8-10.1,2.3c0.1-2.6,0.5-5.3,1.2-8.1l0.4-1.7h-10.4
				c0.8-10.5,5.3-20.7,13.3-30.4l-2-1.7c-8.8,10.5-13.5,21.8-14,33.4l-0.1,1.4h9.8c-0.5,2.5-0.8,4.9-0.9,7.3c-0.7,0-1.4,0.1-2.2,0.1
				h0c-7.7-0.1-12.3-1.5-15-2.5c-1.1-0.4-2.7-1.2-3-1.4l-1.6,2.2c0.6,0.4,2.6,1.3,3.6,1.7c2.9,1.1,7.8,2.6,16,2.7h0.1
				c0.8,0,1.5,0,2.2-0.1c0.2,5.5,1.6,10.8,4.2,16l2.4-1.2c-2.4-4.9-3.7-9.9-3.9-15c5.3-0.5,8.8-1.6,11.1-2.5
				C480.1,70.8,482.1,69.9,482.7,69.4z"/>
		</g>
	</g>
</g>
</svg>
