<?xml version="1.0" encoding="utf-8"?>
<!-- Generator: Adobe Illustrator 26.3.1, SVG Export Plug-In . SVG Version: 6.00 Build 0)  -->
<svg version="1.1" id="Layer_1" xmlns="http://www.w3.org/2000/svg" xmlns:xlink="http://www.w3.org/1999/xlink" x="0px" y="0px"
	 viewBox="0 0 122 60.8" style="enable-background:new 0 0 122 60.8;" xml:space="preserve">
<style type="text/css">
	.st0{fill:#26180F;}
	.st1{fill:#FF2116;}
	.st2{fill:#2C2C2C;}
	.st3{fill:url(#SVGID_1_);}
	.st4{fill:#2E76BB;}
	.st5{fill:#F47F21;}
	.st6{fill:url(#SVGID_00000042007279934212794580000008616740329249785010_);}
	.st7{fill-rule:evenodd;clip-rule:evenodd;fill:#FEFEFE;}
	.st8{fill-rule:evenodd;clip-rule:evenodd;fill:url(#SVGID_00000065755528887830302960000015820798876368803209_);}
	.st9{fill-rule:evenodd;clip-rule:evenodd;fill:url(#SVGID_00000065791389319480879250000011166742566968143258_);}
	.st10{fill:#FEFEFE;}
	.st11{fill:#0089D1;}
	.st12{fill:#007CB8;}
	.st13{fill-rule:evenodd;clip-rule:evenodd;}
	.st14{fill-rule:evenodd;clip-rule:evenodd;fill:url(#SVGID_00000130623389071335060110000008322713129958466472_);}
	.st15{fill-rule:evenodd;clip-rule:evenodd;fill:url(#SVGID_00000091701707119916771300000007175055774505140389_);}
	.st16{fill-rule:evenodd;clip-rule:evenodd;fill:url(#SVGID_00000053516834266893267490000011072866015293687984_);}
	.st17{fill-rule:evenodd;clip-rule:evenodd;fill:url(#SVGID_00000015319393522256499530000013310456996808153216_);}
	.st18{fill-rule:evenodd;clip-rule:evenodd;fill:url(#SVGID_00000144316920729960045840000004426495528461136540_);}
	.st19{fill-rule:evenodd;clip-rule:evenodd;fill:url(#SVGID_00000104671290969937911480000007380211297685463193_);}
	.st20{fill-rule:evenodd;clip-rule:evenodd;fill:url(#SVGID_00000019656363715185596880000015587591248076564647_);}
	.st21{fill-rule:evenodd;clip-rule:evenodd;fill:url(#SVGID_00000011725294275941569880000007291794361348284318_);}
	.st22{fill-rule:evenodd;clip-rule:evenodd;fill:url(#SVGID_00000116194044290346535690000013984929998176605590_);}
	.st23{fill-rule:evenodd;clip-rule:evenodd;fill:url(#SVGID_00000023282297141138745340000015501533600238640046_);}
</style>
<g>
	<g>
		<path class="st13" d="M88.3,42.6h-3.1l-0.6-10.9c-0.3-5-0.4-8.6-0.4-10.6h-0.1c-0.8,3-1.8,6.1-3,9.4l-4.3,12h-2.4l-3.9-11.8
			c-1.2-3.6-2.1-6.8-2.8-9.6h-0.1c-0.1,3.6-0.3,7.2-0.5,10.9l-0.7,10.6h-3l1.7-24.8h4l4.1,12c1,2.8,1.8,5.5,2.5,8.4h0.1
			c0.7-2.7,1.5-5.5,2.6-8.4l4.3-12h4.1L88.3,42.6z"/>
		<path class="st13" d="M105.3,42.6h-2.9l-0.3-2.2H102c-1.2,1.7-3,2.6-5.3,2.6c-1.7,0-3-0.5-4-1.6c-0.9-1-1.4-2.1-1.4-3.5
			c0-2.2,0.9-3.8,2.7-5c1.8-1.1,4.4-1.7,7.8-1.7v-0.4c0-2.7-1.3-4.1-4-4.1c-1.7,0-3.2,0.4-4.5,1.3l-0.7-2.1c1.6-1,3.5-1.5,5.8-1.5
			c4.4,0,6.6,2.4,6.6,7.2v6.7C105,40.1,105.1,41.5,105.3,42.6 M101.9,36.6v-3.1c-4.9-0.1-7.3,1.2-7.3,4c0,1,0.3,1.8,0.8,2.3
			c0.6,0.5,1.3,0.8,2.1,0.8c1.1,0,2-0.3,2.8-0.9c0.7-0.5,1.2-1.2,1.4-2C101.8,37.4,101.9,37,101.9,36.6z"/>
		<path class="st13" d="M122,25.3l-0.7,2.5c-1-0.6-2.2-0.8-3.7-0.8c-1.9,0-3.5,0.7-4.6,2c-1.1,1.2-1.6,2.8-1.6,4.8
			c0,2,0.6,3.6,1.7,4.8c1.1,1.2,2.6,1.8,4.4,1.8c1.3,0,2.6-0.3,3.8-0.8l0.5,2.4c-1.4,0.6-3,1-4.9,1c-2.7,0-4.8-0.8-6.4-2.5
			c-1.6-1.6-2.4-3.8-2.4-6.6c0-2.8,0.9-5,2.6-6.8c1.7-1.8,4-2.7,6.8-2.7C119.4,24.4,120.8,24.7,122,25.3z"/>
	</g>
	<g>
		<linearGradient id="SVGID_1_" gradientUnits="userSpaceOnUse" x1="38.8243" y1="7.5404" x2="38.8243" y2="52.683">
			<stop  offset="0" style="stop-color:#DEF0FA"/>
			<stop  offset="1" style="stop-color:#9ED1EB"/>
		</linearGradient>
		<path style="fill-rule:evenodd;clip-rule:evenodd;fill:url(#SVGID_1_);" d="M22.3,33.9h10.4c-1.6,6.3-1.2,12.5-0.1,18.8h22.6V7.5
			H31.1C26.7,14.9,22.7,22.7,22.3,33.9z"/>
		
			<linearGradient id="SVGID_00000010269460605369912150000017629831432782092985_" gradientUnits="userSpaceOnUse" x1="40.5978" y1="8.5504" x2="40.5978" y2="18.5756">
			<stop  offset="0" style="stop-color:#F2FAFA"/>
			<stop  offset="1" style="stop-color:#E3F0F5"/>
		</linearGradient>
		<path style="fill-rule:evenodd;clip-rule:evenodd;fill:url(#SVGID_00000010269460605369912150000017629831432782092985_);" d="
			M25.9,17.1c9.8-0.1,19.4,0.4,29.4,1.6V7.5H31L25.9,17.1z"/>
		
			<linearGradient id="SVGID_00000057857246018320080430000012326061395942480798_" gradientUnits="userSpaceOnUse" x1="16.3112" y1="7.5404" x2="16.3112" y2="52.683">
			<stop  offset="0" style="stop-color:#8FD4FF"/>
			<stop  offset="1" style="stop-color:#0873F7"/>
		</linearGradient>
		<path style="fill-rule:evenodd;clip-rule:evenodd;fill:url(#SVGID_00000057857246018320080430000012326061395942480798_);" d="
			M0,7.5v45.1h32.6c-1.6-6.4-1.6-12.8,0-19.2c-1.1,0.8-9-0.6-10.1,0.2c0.3-10,4.1-18.2,8.5-26.2H0z"/>
		
			<linearGradient id="SVGID_00000163073839411828715810000007405449544436975003_" gradientUnits="userSpaceOnUse" x1="15.5338" y1="8.6065" x2="15.5338" y2="18.5756">
			<stop  offset="0" style="stop-color:#CFF5F5"/>
			<stop  offset="1" style="stop-color:#6ED4FF"/>
		</linearGradient>
		<path style="fill-rule:evenodd;clip-rule:evenodd;fill:url(#SVGID_00000163073839411828715810000007405449544436975003_);" d="
			M0,18.9c9.2-1.2,17.1-1.6,25.8-1.7l5.3-9.6H0V18.9z"/>
		<g>
			<g>
				<rect x="13.4" y="14.4" width="2.9" height="6.8"/>
			</g>
			<g>
				<rect x="37.2" y="14.4" width="2.9" height="6.8"/>
			</g>
			<path d="M47.3,40.4l-1.6-2.2c-0.3,0.2-1.9,1-3,1.4c-2.1,0.8-5.3,1.8-10.1,2.3c0.1-2.6,0.5-5.3,1.2-8.1l0.4-1.7H23.8
				c0.8-10.5,5.3-20.7,13.3-30.4l-2-1.7c-8.8,10.5-13.5,21.8-14,33.4L21,34.8h9.8c-0.5,2.5-0.8,4.9-0.9,7.3c-0.7,0-1.4,0.1-2.2,0.1
				h0c-7.7-0.1-12.3-1.5-15-2.5c-1.1-0.4-2.7-1.2-3-1.4L8,40.4c0.6,0.4,2.6,1.3,3.6,1.7c2.9,1.1,7.8,2.6,16,2.7h0.1
				c0.8,0,1.5,0,2.2-0.1c0.2,5.5,1.6,10.8,4.2,16l2.4-1.2c-2.4-4.9-3.7-9.9-3.9-15c5.3-0.5,8.8-1.6,11.1-2.5
				C44.7,41.7,46.7,40.8,47.3,40.4z"/>
		</g>
	</g>
</g>
</svg>
