<?xml version="1.0" encoding="utf-8"?>
<!-- Generator: Adobe Illustrator 26.3.1, SVG Export Plug-In . SVG Version: 6.00 Build 0)  -->
<svg version="1.1" id="Layer_1" xmlns="http://www.w3.org/2000/svg" xmlns:xlink="http://www.w3.org/1999/xlink" x="0px" y="0px"
	 viewBox="0 0 420.7 120.7" style="enable-background:new 0 0 420.7 120.7;" xml:space="preserve">
<style type="text/css">
	.st0{fill:#26180F;}
	.st1{fill:#FF2116;}
	.st2{fill:#2C2C2C;}
	.st3{fill:url(#SVGID_1_);}
	.st4{fill:#2E76BB;}
	.st5{fill:#F47F21;}
	.st6{fill:url(#SVGID_00000062177212241893841110000009122468184553499287_);}
	.st7{fill-rule:evenodd;clip-rule:evenodd;fill:#FEFEFE;}
	.st8{fill-rule:evenodd;clip-rule:evenodd;fill:url(#SVGID_00000088831600195489701720000018105010484078092173_);}
	.st9{fill-rule:evenodd;clip-rule:evenodd;fill:url(#SVGID_00000165203886759829583630000009801363654868779432_);}
	.st10{fill:#FEFEFE;}
	.st11{fill:#0089D1;}
	.st12{fill:#007CB8;}
	.st13{fill-rule:evenodd;clip-rule:evenodd;}
	.st14{fill-rule:evenodd;clip-rule:evenodd;fill:url(#SVGID_00000093877654892950246250000013690789692855405486_);}
	.st15{fill-rule:evenodd;clip-rule:evenodd;fill:url(#SVGID_00000124131685689682766750000014437576586515892410_);}
	.st16{fill-rule:evenodd;clip-rule:evenodd;fill:url(#SVGID_00000170963103574565792580000015433677366323112603_);}
	.st17{fill-rule:evenodd;clip-rule:evenodd;fill:url(#SVGID_00000076592803992678245950000017394313525750688413_);}
	.st18{fill-rule:evenodd;clip-rule:evenodd;fill:url(#SVGID_00000026157248277629938990000015349777675233283477_);}
	.st19{fill-rule:evenodd;clip-rule:evenodd;fill:url(#SVGID_00000008124809146335455350000011618867181980932250_);}
	.st20{fill-rule:evenodd;clip-rule:evenodd;fill:url(#SVGID_00000123405665016503443770000008003118409310683061_);}
	.st21{fill-rule:evenodd;clip-rule:evenodd;fill:url(#SVGID_00000085245504967854873660000005054428250334637186_);}
	.st22{fill-rule:evenodd;clip-rule:evenodd;fill:url(#SVGID_00000052798873444402639320000015301597375297476768_);}
	.st23{fill-rule:evenodd;clip-rule:evenodd;fill:url(#SVGID_00000168101646366365514410000001186405219113721493_);}
</style>
<g>
	<path class="st11" d="M60.3,110.7C32.6,110.7,10,88.1,10,60.3S32.6,10,60.3,10h106.2l6.6-10H60.3C27.1,0,0,27.1,0,60.3
		c0,33.3,27.1,60.3,60.3,60.3h33.1l6.6-10H60.3z"/>
	<path class="st12" d="M360.4,0H173.1l-6.6,10h193.9c27.8,0,50.3,22.6,50.3,50.3s-22.6,50.3-50.3,50.3H100l-6.6,10h266.9
		c33.3,0,60.3-27.1,60.3-60.3C420.7,27.1,393.7,0,360.4,0z"/>
</g>
<g>
	<g>
		<circle class="st11" cx="50" cy="46.8" r="11.2"/>
		<path class="st11" d="M128,82.8L97.9,52.6c-0.5-0.5-1.3-0.5-1.8,0l-19,19L66.7,61.2c-0.5-0.5-1.3-0.5-1.8,0L43.3,82.8
			c-0.8,0.8-0.2,2.2,0.9,2.2l8.8-0.1c0.3,0,0.7-0.1,0.9-0.4l12.2-12.2l12.5,12.5c0.2,0.2,0.6,0.4,0.9,0.4h7.9c1.1,0,1.7-1.4,0.9-2.2
			l-5.1-5.1l14.1-14.1l20.9,20.9c0.2,0.2,0.6,0.4,0.9,0.4h7.9C128.3,85,128.8,83.6,128,82.8z"/>
	</g>
	<g>
		<path class="st12" d="M165.4,45.9h5.3v28.9h-5.3V62h-12.6v12.8h-5.3V45.9h5.3v11.6h12.6V45.9z"/>
		<path class="st12" d="M177.6,45.9h5.3v28.9h-5.3V45.9z"/>
		<path class="st12" d="M187.3,60.6h11.2v4.6h-11.2V60.6z"/>
		<path class="st12" d="M210.9,45.6c4.2,0,7.4,0.8,9.6,2.3c2.2,1.5,3.3,3.9,3.3,7c0,3.9-1.9,6.6-5.8,8c0.5,0.6,1.1,1.4,1.8,2.3
			s1.3,1.9,2,3c0.7,1.1,1.4,2.2,2,3.3c0.6,1.1,1.2,2.2,1.7,3.3h-5.9c-0.5-1-1.1-2-1.7-3c-0.6-1-1.2-2-1.9-3c-0.6-1-1.2-1.9-1.9-2.7
			c-0.6-0.8-1.2-1.6-1.7-2.3c-0.4,0-0.7,0-1,0s-0.5,0-0.8,0h-2.5v10.9H203V46.3c1.3-0.3,2.6-0.5,4.1-0.6
			C208.5,45.7,209.8,45.6,210.9,45.6z M211.3,50.2c-1.1,0-2.1,0-3.1,0.1v9.4h2.3c1.3,0,2.4-0.1,3.4-0.2c1-0.1,1.8-0.4,2.4-0.8
			c0.7-0.4,1.1-0.8,1.5-1.5s0.5-1.4,0.5-2.3c0-0.9-0.2-1.6-0.5-2.3s-0.8-1.1-1.4-1.5c-0.6-0.4-1.4-0.6-2.2-0.8
			C213.3,50.2,212.4,50.2,211.3,50.2z"/>
		<path class="st12" d="M228.2,64c0-1.9,0.3-3.6,0.9-5.1c0.6-1.4,1.3-2.7,2.3-3.6c0.9-1,2-1.7,3.3-2.2c1.2-0.5,2.5-0.7,3.8-0.7
			c3,0,5.4,0.9,7,2.8c1.7,1.9,2.5,4.6,2.5,8.4c0,0.3,0,0.6,0,0.9c0,0.3,0,0.7-0.1,0.9h-14.4c0.1,1.8,0.8,3.1,1.9,4.1
			c1.1,1,2.7,1.4,4.8,1.4c1.2,0,2.3-0.1,3.4-0.3c1-0.2,1.8-0.5,2.4-0.7l0.7,4.1c-0.3,0.1-0.7,0.3-1.1,0.4c-0.5,0.2-1,0.3-1.7,0.4
			c-0.6,0.1-1.3,0.2-2,0.3c-0.7,0.1-1.5,0.1-2.2,0.1c-1.9,0-3.6-0.3-5-0.9s-2.6-1.4-3.5-2.4c-0.9-1-1.6-2.2-2-3.6
			S228.2,65.7,228.2,64z M242.9,61.8c0-0.7-0.1-1.4-0.3-2c-0.2-0.6-0.5-1.2-0.9-1.6s-0.8-0.8-1.4-1.1c-0.5-0.3-1.2-0.4-1.9-0.4
			c-0.8,0-1.5,0.1-2,0.4c-0.6,0.3-1.1,0.7-1.5,1.1c-0.4,0.5-0.7,1-0.9,1.6c-0.2,0.6-0.4,1.2-0.5,1.9H242.9z"/>
		<path class="st12" d="M258.8,71.2c1.3,0,2.3-0.2,2.9-0.5s0.9-0.9,0.9-1.6c0-0.7-0.3-1.3-1-1.8c-0.7-0.5-1.7-1-3.2-1.5
			c-0.9-0.3-1.8-0.7-2.5-1.1c-0.8-0.4-1.4-0.8-2-1.3c-0.6-0.5-1-1.1-1.3-1.8c-0.3-0.7-0.5-1.6-0.5-2.6c0-2,0.7-3.6,2.2-4.7
			c1.5-1.2,3.5-1.7,6-1.7c1.3,0,2.5,0.1,3.7,0.4c1.2,0.2,2,0.5,2.6,0.7l-0.9,4.1c-0.6-0.3-1.3-0.5-2.1-0.7c-0.9-0.2-1.9-0.3-3-0.3
			c-1,0-1.9,0.2-2.5,0.5c-0.6,0.3-1,0.9-1,1.6c0,0.4,0.1,0.7,0.2,1c0.1,0.3,0.3,0.5,0.6,0.8c0.3,0.2,0.7,0.5,1.2,0.7
			c0.5,0.2,1.1,0.5,1.8,0.7c1.2,0.4,2.2,0.9,3,1.3c0.8,0.4,1.5,0.9,2.1,1.5s0.9,1.2,1.2,1.9c0.3,0.7,0.4,1.5,0.4,2.5
			c0,2.1-0.8,3.7-2.3,4.7s-3.8,1.6-6.6,1.6c-1.9,0-3.5-0.2-4.6-0.5c-1.2-0.3-2-0.6-2.5-0.8l0.9-4.2c0.8,0.3,1.6,0.6,2.7,0.9
			C256.2,71.1,257.4,71.2,258.8,71.2z"/>
		<path class="st12" d="M297,65.3c0,1.4-0.2,2.7-0.5,4c-0.3,1.2-0.8,2.3-1.6,3.2c-0.8,0.9-1.8,1.6-3.1,2.2c-1.3,0.5-2.9,0.8-4.9,0.8
			c-1.8,0-3.4-0.3-4.8-0.8c-1.4-0.5-2.4-1.1-3.1-1.6l1.9-4.1c0.7,0.5,1.6,0.9,2.6,1.4c1,0.4,2.1,0.6,3.1,0.6c1.8,0,3.1-0.4,3.9-1.3
			c0.8-0.9,1.2-2.4,1.2-4.6V45.9h5.3V65.3z"/>
		<path class="st12" d="M311.9,45.6c4.2,0,7.4,0.8,9.7,2.3c2.2,1.5,3.4,3.9,3.4,7.2c0,1.7-0.3,3.2-0.9,4.4c-0.6,1.2-1.5,2.2-2.6,3
			s-2.5,1.3-4.2,1.7c-1.6,0.4-3.5,0.5-5.6,0.5H309v10.2h-5.3V46.3c1.2-0.3,2.6-0.5,4.1-0.6C309.3,45.7,310.7,45.6,311.9,45.6z
			 M312.3,50.2c-1.3,0-2.4,0-3.3,0.1v9.9h2.5c2.5,0,4.5-0.4,5.8-1.1c1.4-0.7,2-2.1,2-4c0-0.9-0.2-1.7-0.5-2.4
			c-0.4-0.6-0.9-1.1-1.5-1.5c-0.6-0.4-1.4-0.6-2.3-0.8C314.3,50.2,313.3,50.2,312.3,50.2z"/>
		<path class="st12" d="M329.8,74.8V45.9h18.6v4.5H335v7.1h11.9v4.4H335v8.5h14.3v4.5H329.8z"/>
		<path class="st12" d="M366.7,49.9c-3,0-5.3,0.9-6.8,2.8c-1.6,1.9-2.4,4.4-2.4,7.7c0,1.6,0.2,3,0.6,4.3c0.4,1.3,0.9,2.4,1.7,3.3
			c0.7,0.9,1.7,1.6,2.8,2.2c1.1,0.5,2.4,0.8,3.9,0.8c0.9,0,1.7,0,2.4-0.1c0.7-0.1,1.2-0.2,1.6-0.3V60.1h5.3V74
			c-0.7,0.3-1.9,0.6-3.7,0.9c-1.7,0.3-3.7,0.5-6,0.5c-2.1,0-4-0.3-5.7-1c-1.7-0.7-3.2-1.6-4.4-2.9s-2.2-2.9-2.8-4.7
			c-0.7-1.9-1-4-1-6.4s0.4-4.6,1.1-6.4c0.7-1.9,1.7-3.4,3-4.7c1.3-1.3,2.8-2.3,4.5-2.9c1.7-0.7,3.6-1,5.5-1c1.3,0,2.5,0.1,3.6,0.3
			c1,0.2,1.9,0.4,2.7,0.6c0.8,0.2,1.4,0.5,1.9,0.7c0.5,0.2,0.8,0.4,1,0.5l-1.6,4.3c-0.8-0.5-1.9-0.9-3.1-1.3
			C369.4,50,368.1,49.9,366.7,49.9z"/>
	</g>
</g>
</svg>
