<?xml version="1.0" encoding="utf-8"?>
<!-- Generator: Adobe Illustrator 26.3.1, SVG Export Plug-In . SVG Version: 6.00 Build 0)  -->
<svg version="1.1" id="Layer_1" xmlns="http://www.w3.org/2000/svg" xmlns:xlink="http://www.w3.org/1999/xlink" x="0px" y="0px"
	 viewBox="0 0 89.6 49.5" style="enable-background:new 0 0 89.6 49.5;" xml:space="preserve">
<style type="text/css">
	.st0{fill:#26180F;}
	.st1{fill:#FF2116;}
	.st2{fill:#2C2C2C;}
	.st3{fill:url(#SVGID_1_);}
	.st4{fill:#2E76BB;}
	.st5{fill:#F47F21;}
	.st6{fill:url(#SVGID_00000069380084977249883050000011314034725430969267_);}
	.st7{fill-rule:evenodd;clip-rule:evenodd;fill:#FEFEFE;}
	.st8{fill-rule:evenodd;clip-rule:evenodd;fill:url(#SVGID_00000108293321978600363070000011449251102787040397_);}
	.st9{fill-rule:evenodd;clip-rule:evenodd;fill:url(#SVGID_00000124859960899449228330000007861862892363083447_);}
	.st10{fill:#FEFEFE;}
	.st11{fill:#0089D1;}
	.st12{fill:#007CB8;}
	.st13{fill-rule:evenodd;clip-rule:evenodd;}
	.st14{fill-rule:evenodd;clip-rule:evenodd;fill:url(#SVGID_00000120543149648286452860000012249748666943451777_);}
	.st15{fill-rule:evenodd;clip-rule:evenodd;fill:url(#SVGID_00000165200506912056685320000009939092621383206585_);}
	.st16{fill-rule:evenodd;clip-rule:evenodd;fill:url(#SVGID_00000092418248724693810760000008988368384562856639_);}
	.st17{fill-rule:evenodd;clip-rule:evenodd;fill:url(#SVGID_00000127011072562933159030000017158667610210725532_);}
	.st18{fill-rule:evenodd;clip-rule:evenodd;fill:url(#SVGID_00000132049951256940525070000011519097013806160062_);}
	.st19{fill-rule:evenodd;clip-rule:evenodd;fill:url(#SVGID_00000090291063266822441700000017046293939263133323_);}
	.st20{fill-rule:evenodd;clip-rule:evenodd;fill:url(#SVGID_00000129178442584566648280000004277149080754531767_);}
	.st21{fill-rule:evenodd;clip-rule:evenodd;fill:url(#SVGID_00000090975489358746832290000000215397873067047067_);}
	.st22{fill-rule:evenodd;clip-rule:evenodd;fill:url(#SVGID_00000075158590312460230880000002970170395768336574_);}
	.st23{fill-rule:evenodd;clip-rule:evenodd;fill:url(#SVGID_00000093888766705949226230000006529271574299981455_);}
</style>
<g>
	<circle class="st11" cx="11.2" cy="11.2" r="11.2"/>
	<path class="st11" d="M89.2,47.2L59.1,17c-0.5-0.5-1.3-0.5-1.8,0l-19,19L27.9,25.6c-0.5-0.5-1.3-0.5-1.8,0L4.5,47.2
		c-0.8,0.8-0.2,2.2,0.9,2.2l8.8-0.1c0.3,0,0.7-0.1,0.9-0.4l12.2-12.2l12.5,12.5c0.2,0.2,0.6,0.4,0.9,0.4h7.9c1.1,0,1.7-1.4,0.9-2.2
		l-5.1-5.1l14.1-14.1L79.5,49c0.2,0.2,0.6,0.4,0.9,0.4h7.9C89.5,49.4,90,48,89.2,47.2z"/>
</g>
</svg>
