<?xml version="1.0" encoding="utf-8"?>
<!-- Generator: Adobe Illustrator 26.3.1, SVG Export Plug-In . SVG Version: 6.00 Build 0)  -->
<svg version="1.1" id="Layer_1" xmlns="http://www.w3.org/2000/svg" xmlns:xlink="http://www.w3.org/1999/xlink" x="0px" y="0px"
	 viewBox="0 0 50.1 50.3" style="enable-background:new 0 0 50.1 50.3;" xml:space="preserve">
<style type="text/css">
	.st0{fill:#26180F;}
	.st1{fill:#FF2116;}
	.st2{fill:#2C2C2C;}
	.st3{fill:url(#SVGID_1_);}
	.st4{fill:#2E76BB;}
	.st5{fill:#F47F21;}
	.st6{fill:url(#SVGID_00000137123376101485851360000015866924825480694933_);}
	.st7{fill-rule:evenodd;clip-rule:evenodd;fill:#FEFEFE;}
	.st8{fill-rule:evenodd;clip-rule:evenodd;fill:url(#SVGID_00000158028719880161135400000011288957695299630987_);}
	.st9{fill-rule:evenodd;clip-rule:evenodd;fill:url(#SVGID_00000141436606460562785010000006130707535403519127_);}
	.st10{fill:#FEFEFE;}
	.st11{fill:#0089D1;}
	.st12{fill:#007CB8;}
	.st13{fill-rule:evenodd;clip-rule:evenodd;}
	.st14{fill-rule:evenodd;clip-rule:evenodd;fill:url(#SVGID_00000106118543668756381140000013695052652035549622_);}
	.st15{fill-rule:evenodd;clip-rule:evenodd;fill:url(#SVGID_00000032648607977287609040000003437587615004176798_);}
	.st16{fill-rule:evenodd;clip-rule:evenodd;fill:url(#SVGID_00000031185075464387271840000014924507662566994100_);}
	.st17{fill-rule:evenodd;clip-rule:evenodd;fill:url(#SVGID_00000167389648347892700390000005327128071874173844_);}
	.st18{fill-rule:evenodd;clip-rule:evenodd;fill:url(#SVGID_00000180362130377301062840000007010419018971647907_);}
	.st19{fill-rule:evenodd;clip-rule:evenodd;fill:url(#SVGID_00000021113481005619058620000016639617816734463660_);}
	.st20{fill-rule:evenodd;clip-rule:evenodd;fill:url(#SVGID_00000054973991591644634990000000801436209554712475_);}
	.st21{fill-rule:evenodd;clip-rule:evenodd;fill:url(#SVGID_00000019677396889656847360000009022718598824915333_);}
	.st22{fill-rule:evenodd;clip-rule:evenodd;fill:url(#SVGID_00000151517081093842460620000015651214524247940244_);}
	.st23{fill-rule:evenodd;clip-rule:evenodd;fill:url(#SVGID_00000083076201386805169780000012064505736273859753_);}
</style>
<g>
	<path id="path5_00000120524143605703382960000013854423321866272403_" class="st4" d="M23,3.9C32,2.6,41.1,1.3,50.1,0
		c0,7.9,0,15.9,0,23.8C41.1,23.8,32,24,23,24C23,17.3,23,10.6,23,3.9L23,3.9z"/>
	<path id="path7_00000087376850110490902250000007689558243048830634_" class="st4" d="M0,7.1c6.8-1.1,13.6-2,20.5-2.8
		c0,6.6,0,13.2,0,19.7c-6.8,0-13.7,0.1-20.5,0.1V7.1L0,7.1z"/>
	<path id="path29_00000049920520396358651390000005859247572152884893_" class="st4" d="M0,26.2c6.8,0,13.7,0.1,20.5,0.1
		c0,6.6,0,13.2,0,19.8c-6.8-1-13.7-1.9-20.5-2.8V26.2z"/>
	<path id="path31_00000012454858845401882590000000133032261959570863_" class="st4" d="M22.9,26.5c9.1,0,18.1,0,27.2,0
		c0,7.9,0,15.8,0,23.8c-9-1.4-18.1-2.6-27.2-3.8C23,39.8,22.9,33.1,22.9,26.5z"/>
</g>
</svg>
