<?xml version="1.0" encoding="utf-8"?>
<!-- Generator: Adobe Illustrator 26.3.1, SVG Export Plug-In . SVG Version: 6.00 Build 0)  -->
<svg version="1.1" id="Layer_1" xmlns="http://www.w3.org/2000/svg" xmlns:xlink="http://www.w3.org/1999/xlink" x="0px" y="0px"
	 viewBox="0 0 159.1 66.1" style="enable-background:new 0 0 159.1 66.1;" xml:space="preserve">
<style type="text/css">
	.st0{fill:#26180F;}
	.st1{fill:#FF2116;}
	.st2{fill:#2C2C2C;}
	.st3{fill:url(#SVGID_1_);}
	.st4{fill:#2E76BB;}
	.st5{fill:#F47F21;}
	.st6{fill:url(#SVGID_00000057141941154598329390000013283284243257859486_);}
	.st7{fill-rule:evenodd;clip-rule:evenodd;fill:#FEFEFE;}
	.st8{fill-rule:evenodd;clip-rule:evenodd;fill:url(#SVGID_00000142895770857138683980000012932763972478292865_);}
	.st9{fill-rule:evenodd;clip-rule:evenodd;fill:url(#SVGID_00000093135770260993285680000012915835586885319858_);}
	.st10{fill:#FEFEFE;}
	.st11{fill:#0089D1;}
	.st12{fill:#007CB8;}
	.st13{fill-rule:evenodd;clip-rule:evenodd;}
	.st14{fill-rule:evenodd;clip-rule:evenodd;fill:url(#SVGID_00000121961614817034285600000009254371505874197691_);}
	.st15{fill-rule:evenodd;clip-rule:evenodd;fill:url(#SVGID_00000047057065207078508070000002318821938131082650_);}
	.st16{fill-rule:evenodd;clip-rule:evenodd;fill:url(#SVGID_00000158002201619847105180000015980680448976109486_);}
	.st17{fill-rule:evenodd;clip-rule:evenodd;fill:url(#SVGID_00000021082754439496632940000009271386099135933615_);}
	.st18{fill-rule:evenodd;clip-rule:evenodd;fill:url(#SVGID_00000096052027097543861010000017706067637755477387_);}
	.st19{fill-rule:evenodd;clip-rule:evenodd;fill:url(#SVGID_00000111871616988664104400000000411943084271408561_);}
	.st20{fill-rule:evenodd;clip-rule:evenodd;fill:url(#SVGID_00000095329253948779619460000003906038906442278052_);}
	.st21{fill-rule:evenodd;clip-rule:evenodd;fill:url(#SVGID_00000183968272917303250630000017746163673630540942_);}
	.st22{fill-rule:evenodd;clip-rule:evenodd;fill:url(#SVGID_00000060730484181793849390000015048218229759220114_);}
	.st23{fill-rule:evenodd;clip-rule:evenodd;fill:url(#SVGID_00000018197839818841133170000001587627653115840948_);}
</style>
<g>
	<g id="_x32_56_00000178915433642406756190000002064200625711062930_">
		<g>
			<path class="st1" d="M67,42.7c-1-1-2.5-1.8-4.6-2.4c-2-0.6-4.6-0.9-7.4-0.9c-1.6,0-3.4,0.1-5.2,0.3c-1.8,0.2-3.7,0.5-5.7,0.8
				c-1.2-1.1-2.3-2.3-3.5-3.6c-1.1-1.3-2.3-2.7-3.3-4.2c-0.7-1.1-1.5-2.2-2.2-3.3c-0.7-1.1-1.4-2.2-2-3.3c1-3.2,1.9-6.3,2.5-9.2
				c0.6-2.9,1-5.6,1-7.9c0-1.7-0.3-4-1.2-5.8S33,0,30.4,0c-0.7,0-1.4,0.2-2,0.6c-0.6,0.4-1.2,0.9-1.5,1.5c-1,1.8-1.3,4.9-0.9,8.6
				c0.4,3.7,1.6,8,3.6,12.2c-0.7,2-1.4,4.1-2.2,6.3s-1.7,4.4-2.7,6.8c-0.8,2-1.7,3.9-2.6,5.9c-0.9,1.9-1.9,3.8-2.9,5.7
				C13.5,49.7,9,52.1,5.7,54.4c-3.3,2.3-5.3,4.5-5.6,6.6c-0.1,0.7-0.1,1.3,0.1,1.9c0.2,0.6,0.6,1.2,1.1,1.7c0.3,0.3,0.8,0.6,1.5,1
				c0.7,0.3,1.5,0.5,2.6,0.5c3.2,0,6.6-2.3,9.9-5.9c3.3-3.6,6.4-8.3,9-13.1c1.5-0.5,3-1.1,4.6-1.5c1.6-0.5,3.2-0.9,4.8-1.3
				c1.8-0.5,3.5-0.9,5.1-1.2c1.7-0.4,3.3-0.7,4.9-0.9c3.9,3.5,7.5,5.5,10.6,6.5c3.1,1.1,5.7,1.2,7.5,1.2c2.1,0,3.4-0.3,4.3-0.8
				s1.3-1.2,1.6-2c0.3-0.9,0.3-1.8,0.1-2.5C67.8,43.7,67.4,43.1,67,42.7z M28,2.7c0.3-0.5,0.6-0.8,1-1.1c0.4-0.3,0.8-0.4,1.3-0.4
				c1,0,1.7,0.4,2.2,1.2s0.8,2,0.8,3.6c0,1.6-0.3,3.8-0.8,6.4c-0.5,2.6-1.3,5.5-2.2,8.6c-1.9-4.4-2.9-8.3-3.1-11.4
				C26.8,6.4,27.2,4,28,2.7z M1.3,61.1c0.3-1.7,2.1-3.6,5-5.7c2.9-2,6.9-4.1,11.7-6.2c-2.7,4.6-5.4,8.4-7.9,10.9s-4.6,4-6.3,4
				c-0.3,0-0.6-0.1-0.9-0.2c-0.3-0.1-0.6-0.3-0.8-0.5c-0.3-0.3-0.6-0.7-0.7-1.2C1.3,61.9,1.2,61.5,1.3,61.1z M42.5,40.8
				c-1.4,0.3-2.9,0.6-4.5,0.9c-1.5,0.3-3.1,0.7-4.7,1.1c-1.4,0.3-2.7,0.7-4.1,1.1c-1.3,0.4-2.7,0.8-4,1.3c0.7-1.4,1.5-2.8,2.1-4.2
				c0.6-1.4,1.2-2.7,1.7-4c0.6-1.5,1.2-3,1.8-4.6c0.6-1.5,1.2-3.1,1.7-4.7c0.5,1,1.1,1.9,1.7,2.9c0.6,1,1.3,1.9,1.9,2.9
				c1,1.3,1.9,2.6,3,3.8C40.4,38.6,41.4,39.7,42.5,40.8L42.5,40.8L42.5,40.8L42.5,40.8L42.5,40.8z M45.2,41.6
				c3.3-0.6,6.3-0.9,8.9-0.9s4.6,0.1,5.9,0.4c1.2,0.3,2.2,0.8,2.8,1.6c0.6,0.7,0.8,1.7,0.6,2.8c-0.2,1.2-1,2-2.1,2.5
				c-1.1,0.5-2.5,0.6-4,0.2c-2.4-0.6-4.7-1.6-6.7-2.7C48.7,44.3,46.9,43,45.2,41.6z"/>
		</g>
	</g>
	<g>
		<path class="st2" d="M84.5,16.4c0-0.1,0-0.1,0-0.1s0-0.1,0-0.1c0,0,0.1-0.1,0.1-0.1c0,0,0.1,0,0.2,0c0.5,0,1.1,0,1.7-0.1
			c0.6,0,1.3,0,1.9,0c0.7,0,1.4,0,2.1,0c0.7,0,1.5,0,2.3,0c2.2,0,4,0.3,5.6,0.8c1.6,0.5,2.8,1.3,3.8,2.3c1,1,1.7,2.1,2.2,3.4
			c0.5,1.3,0.7,2.7,0.7,4.2c0,2-0.4,3.7-1,5.1s-1.6,2.6-2.7,3.5c-1.2,0.9-2.5,1.6-4,2c-1.5,0.4-3.2,0.7-4.9,0.7c-0.3,0-0.5,0-0.8,0
			c-0.2,0-0.4,0-0.6,0c-0.2,0-0.3,0-0.5,0c-0.2,0-0.4,0-0.6,0v3v3v3v3c0,0.1,0,0.1,0,0.2c0,0,0,0.1-0.1,0.1c0,0-0.1,0.1-0.1,0.1
			c0,0-0.1,0-0.2,0h-1.2h-1.2H86h-1.2c-0.1,0-0.1,0-0.2,0c0,0-0.1,0-0.1-0.1c0,0-0.1-0.1-0.1-0.1c0,0,0-0.1,0-0.2v-8.4v-8.4v-8.4
			C84.5,24.7,84.5,16.4,84.5,16.4z M90,32.9c0.2,0,0.3,0,0.5,0c0.2,0,0.3,0,0.5,0c0.2,0,0.4,0,0.6,0c0.2,0,0.5,0,0.8,0
			c0.9,0,1.8-0.1,2.6-0.3s1.6-0.5,2.2-1s1.2-1.1,1.6-1.9c0.4-0.8,0.6-1.8,0.6-3c0-1-0.2-1.8-0.4-2.6c-0.3-0.7-0.7-1.4-1.3-1.9
			c-0.6-0.5-1.2-0.9-2.1-1.1c-0.8-0.2-1.7-0.4-2.8-0.4c-0.3,0-0.6,0-0.9,0c-0.3,0-0.6,0-0.8,0c-0.3,0-0.5,0-0.7,0
			c-0.2,0-0.4,0-0.5,0v3v3v3V32.9z"/>
		<path class="st2" d="M110.6,16.4c0-0.1,0-0.1,0-0.2c0,0,0-0.1,0.1-0.1c0,0,0.1-0.1,0.1-0.1c0,0,0.1,0,0.2-0.1c0.3,0,0.7,0,1.3,0
			c0.5,0,1.2,0,1.9-0.1s1.5,0,2.3,0c0.8,0,1.7,0,2.6,0c2.6,0,4.9,0.4,6.8,1.2c1.9,0.8,3.6,1.9,4.9,3.4c1.3,1.5,2.3,3.2,2.9,5.2
			c0.6,2,1,4.3,1,6.7c0,3.4-0.6,6.2-1.5,8.6c-0.9,2.3-2.3,4.1-3.8,5.5c-1.6,1.4-3.3,2.3-5.1,2.9c-1.8,0.6-3.7,0.9-5.4,0.9
			c-0.7,0-1.4,0-2.1,0c-0.7,0-1.5,0-2.2,0c-0.7,0-1.4,0-2,0c-0.6,0-1.1,0-1.4,0c-0.1,0-0.1,0-0.1,0c0,0-0.1,0-0.1-0.1s0-0.1-0.1-0.1
			c0-0.1,0-0.1,0-0.2v-8.3v-8.3v-8.3L110.6,16.4L110.6,16.4z M116.2,45.2c0.2,0,0.4,0,0.6,0s0.4,0,0.6,0c0.2,0,0.4,0,0.6,0
			c0.2,0,0.5,0,0.7,0c1.4,0,2.8-0.3,4-0.8s2.3-1.3,3.2-2.3c0.9-1.1,1.6-2.4,2.1-4c0.5-1.6,0.8-3.5,0.8-5.7c0-2.1-0.3-3.9-0.7-5.4
			c-0.5-1.5-1.2-2.7-2.1-3.7s-2-1.6-3.1-2.1c-1.2-0.4-2.5-0.6-3.9-0.6c-0.3,0-0.5,0-0.8,0c-0.2,0-0.5,0-0.7,0c-0.2,0-0.5,0-0.7,0
			c-0.2,0-0.4,0-0.7,0V27V33v6.1C116.2,39.1,116.2,45.2,116.2,45.2z"/>
		<path class="st2" d="M146.3,49.7c0,0.1,0,0.1,0,0.2c0,0.1,0,0.1-0.1,0.1c0,0-0.1,0.1-0.1,0.1c0,0-0.1,0-0.2,0h-1.2h-1.2h-1.2h-1.2
			c-0.1,0-0.1,0-0.2,0c0,0-0.1,0-0.1-0.1c0,0-0.1-0.1-0.1-0.1c0-0.1,0-0.1,0-0.2v-8.4V33v-8.4v-8.4c0-0.1,0-0.1,0-0.2
			c0,0,0-0.1,0.1-0.1s0.1-0.1,0.1-0.1c0,0,0.1,0,0.2,0h4.3h4.3h4.3h4.3c0.1,0,0.1,0,0.2,0c0,0,0.1,0,0.1,0.1c0,0,0.1,0.1,0.1,0.1
			c0,0,0,0.1,0,0.2l0.1,1.1l0.1,1.1l0.1,1.1l0.1,1.1c0,0.1,0,0.1,0,0.2c0,0.1,0,0.1-0.1,0.1c0,0-0.1,0.1-0.1,0.1s-0.1,0-0.2,0h-3.1
			h-3.1h-3.1h-3.1v2.4v2.4v2.4v2.4h2.8h2.8h2.8h2.8c0.1,0,0.1,0,0.2,0c0,0,0.1,0,0.1,0.1c0,0,0.1,0.1,0.1,0.1c0,0,0,0.1,0,0.2v1.1
			v1.1v1.1v1.1c0,0.1,0,0.1,0,0.2c0,0,0,0.1-0.1,0.1c0,0-0.1,0-0.1,0.1c0,0-0.1,0-0.2,0h-2.8h-2.8h-2.8h-2.8v3.5v3.5v3.5L146.3,49.7
			L146.3,49.7z"/>
	</g>
</g>
</svg>
