<?xml version="1.0" encoding="utf-8"?>
<!-- Generator: Adobe Illustrator 26.3.1, SVG Export Plug-In . SVG Version: 6.00 Build 0)  -->
<svg version="1.1" id="Layer_1" xmlns="http://www.w3.org/2000/svg" xmlns:xlink="http://www.w3.org/1999/xlink" x="0px" y="0px"
	 viewBox="0 0 24 24" style="enable-background:new 0 0 24 24;" xml:space="preserve">
<style type="text/css">
	.st0{fill:#365475;}
</style>
<path class="st0" d="M10.3,11.1c1.8-0.3,3.5,0.9,3.7,2.7S12.7,17,11,17H7c-0.7,0-1.2-0.7-1-1.3C6.5,14.1,8,11.5,10.3,11.1z M20,12
	c-0.6,0-1,0.4-1,1v6c0,1.7-1.3,3-3,3H5c-1.7,0-3-1.3-3-3V8c0-1.7,1.3-3,3-3h7c0.6,0,1-0.4,1-1s-0.4-1-1-1H5C2.2,3,0,5.2,0,8v11
	c0,2.8,2.2,5,5,5h11c2.8,0,5-2.2,5-5v-6C21,12.4,20.6,12,20,12z M23.1,0.9c-1.1-1.1-3-1.2-4.2,0c0,0-6.7,7.3-6.7,7.3
	c-0.5,0.5-0.3,1.3,0.4,1.6c0,0,0,0,0,0c0.4,0.2,0.8,0.1,1.1-0.2l6.6-7.2c0.3-0.4,0.9-0.4,1.3-0.1c0,0,0,0,0,0c0.4,0.4,0.4,1,0,1.3
	c0,0,0,0,0,0l-6.9,6.7c-0.3,0.3-0.4,0.8-0.1,1.2c0,0,0,0,0,0c0.3,0.5,1.1,0.6,1.5,0.2L23.1,5C24.3,3.9,24.3,2,23.1,0.9L23.1,0.9z"/>
</svg>
