<?xml version="1.0" encoding="utf-8"?>
<!-- Generator: Adobe Illustrator 26.3.1, SVG Export Plug-In . SVG Version: 6.00 Build 0)  -->
<svg version="1.1" id="Layer_1" xmlns="http://www.w3.org/2000/svg" xmlns:xlink="http://www.w3.org/1999/xlink" x="0px" y="0px"
	 viewBox="0 0 24 24" style="enable-background:new 0 0 24 24;" xml:space="preserve">
<style type="text/css">
	.st0{fill:#365475;}
</style>
<path class="st0" d="M10.2,16c0.5,0.5,1,0.7,1.8,0.7c0.7,0,1.2-0.3,1.6-0.8l6.3-9.5l-9.5,6.3c-0.5,0.3-0.8,0.9-0.8,1.6
	S9.8,15.5,10.2,16z M12,2.9c1.1,0,2.2,0.2,3.2,0.5c1,0.3,2,0.8,2.9,1.4L16,6.2c-0.6-0.3-1.3-0.6-1.9-0.7c-0.7-0.2-1.3-0.2-2-0.2
	c-2.5,0-4.7,0.9-6.4,2.6s-2.6,3.9-2.6,6.4c0,0.8,0.1,1.6,0.3,2.4s0.5,1.5,0.9,2.2h15.6c0.4-0.7,0.8-1.5,0.9-2.2
	c0.2-0.8,0.3-1.6,0.3-2.4c0-0.7-0.1-1.3-0.2-2c-0.2-0.6-0.4-1.3-0.7-1.9l1.4-2.2C22,9,22.5,10,22.8,11s0.5,2,0.5,3.1
	c0,1.1-0.1,2.1-0.4,3.1c-0.3,1-0.7,1.9-1.2,2.8c-0.2,0.3-0.5,0.6-0.8,0.8c-0.4,0.2-0.7,0.3-1.1,0.3H4.2c-0.4,0-0.8-0.1-1.1-0.3
	c-0.4-0.2-0.6-0.5-0.8-0.8c-0.5-0.8-0.9-1.8-1.1-2.7c-0.3-1-0.4-2-0.4-3c0-1.6,0.3-3,0.9-4.4S3,7.3,4,6.3s2.2-1.8,3.6-2.4
	S10.5,2.9,12,2.9z"/>
</svg>
