<?xml version="1.0" encoding="utf-8"?>
<!-- Generator: Adobe Illustrator 26.3.1, SVG Export Plug-In . SVG Version: 6.00 Build 0)  -->
<svg version="1.1" id="Layer_1" xmlns="http://www.w3.org/2000/svg" xmlns:xlink="http://www.w3.org/1999/xlink" x="0px" y="0px"
	 viewBox="0 0 24 24" style="enable-background:new 0 0 24 24;" xml:space="preserve">
<style type="text/css">
	.st0{fill:#365475;}
</style>
<path class="st0" d="M19.7,8.2c0-4.3-3.4-7.7-7.7-7.7S4.3,3.9,4.3,8.1c0,1.9,0.7,3.7,1.9,5.1v7.9c0,1.3,1.1,2.4,2.4,2.4
	c0.5,0,1.1-0.2,1.5-0.5l1.6-1.3c0.2-0.1,0.4-0.1,0.6,0l1.6,1.3c1,0.8,2.6,0.7,3.4-0.4c0.3-0.4,0.5-1,0.5-1.5v-7.9
	C19,11.8,19.7,10,19.7,8.2z M12,2.4c3.2,0,5.8,2.6,5.8,5.8s-2.6,5.8-5.8,5.8s-5.8-2.6-5.8-5.8C6.2,5,8.8,2.4,12,2.4z M15.6,21.6
	c-0.2,0.1-0.4,0.1-0.5-0.1l-1.6-1.3c-0.9-0.7-2.1-0.7-3,0l-1.6,1.3c-0.2,0.2-0.5,0.1-0.7-0.1c-0.1-0.1-0.1-0.2-0.1-0.3v-6.3
	c2.4,1.4,5.3,1.4,7.7,0v6.3C15.9,21.4,15.8,21.5,15.6,21.6z"/>
</svg>
