<svg width="24" height="24" viewBox="0 0 24 24" fill="none" xmlns="http://www.w3.org/2000/svg">
<path d="M11.9 15.3L16.9 10.3C17.3 9.9 17.3 9.3 16.9 8.9C16.5 8.5 15.9 8.5 15.5 8.9L10.7 13.7C10.6 13.8 10.5 13.8 10.5 13.7L8.5 11.7C8.1 11.3 7.5 11.3 7.1 11.7C6.7 12.1 6.7 12.7 7.1 13.1L9.3 15.3C10 16 11.2 16 11.9 15.3ZM12 22C10.6 22 9.3 21.7 8.1 21.2C6.9 20.7 5.8 20 4.9 19.1C4 18.2 3.3 17.1 2.8 15.9C2.3 14.7 2 13.4 2 12C2 10.6 2.3 9.3 2.8 8.1C3.3 6.9 4 5.8 4.9 4.9C5.8 4 6.9 3.3 8.1 2.8C9.3 2.3 10.6 2 12 2C13.4 2 14.7 2.3 15.9 2.8C17.1 3.3 18.2 4 19.1 4.9C20 5.8 20.7 6.9 21.2 8.1C21.7 9.3 22 10.6 22 12C22 13.4 21.7 14.7 21.2 15.9C20.7 17.1 20 18.2 19.1 19.1C18.2 20 17.1 20.7 15.9 21.2C14.7 21.7 13.4 22 12 22ZM12 20C14.2 20 16.1 19.2 17.7 17.7C19.2 16.2 20 14.3 20 12C20 9.7 19.2 7.9 17.7 6.3C16.1 4.8 14.2 4 12 4C9.8 4 7.9 4.8 6.3 6.3C4.7 7.8 4 9.8 4 12C4 14.2 4.8 16.1 6.3 17.7C7.9 19.2 9.8 20 12 20Z" fill="#365475"/>
</svg>
