<?xml version="1.0" encoding="utf-8"?>
<!-- Generator: Adobe Illustrator 26.3.1, SVG Export Plug-In . SVG Version: 6.00 Build 0)  -->
<svg version="1.1" id="Layer_1" xmlns="http://www.w3.org/2000/svg" xmlns:xlink="http://www.w3.org/1999/xlink" x="0px" y="0px"
	 viewBox="0 0 512 512" style="enable-background:new 0 0 512 512;" xml:space="preserve">
<style type="text/css">
	.st0{fill:#365475;}
</style>
<path class="st0" d="M335.1,207.1L286.2,256l48.9,48.9c8.3,8.3,8.3,21.8,0,30.2c-4.2,4.2-9.6,6.3-15.1,6.3c-5.5,0-10.9-2.1-15.1-6.3
	L256,286.2l-48.9,48.9c-4.2,4.2-9.6,6.3-15.1,6.3c-5.5,0-10.9-2.1-15.1-6.3c-8.3-8.3-8.3-21.8,0-30.2l48.9-48.9l-48.9-48.9
	c-8.3-8.3-8.3-21.8,0-30.2c8.3-8.3,21.8-8.3,30.2,0l48.9,48.9l48.9-48.9c8.3-8.3,21.8-8.3,30.2,0
	C343.4,185.3,343.4,198.7,335.1,207.1L335.1,207.1z M512,256c0,141.2-114.8,256-256,256S0,397.2,0,256S114.8,0,256,0
	S512,114.8,512,256z M469.3,256c0-117.6-95.7-213.3-213.3-213.3S42.7,138.4,42.7,256S138.4,469.3,256,469.3S469.3,373.6,469.3,256z"
	/>
</svg>
