<svg width="512" height="512" viewBox="0 0 512 512" fill="none" xmlns="http://www.w3.org/2000/svg">
<g clip-path="url(#clip0_11_7)">
<path d="M335.1 207.1L286.2 256L335.1 304.9C343.4 313.2 343.4 326.7 335.1 335.1C330.9 339.3 325.5 341.4 320 341.4C314.5 341.4 309.1 339.3 304.9 335.1L256 286.2L207.1 335.1C202.9 339.3 197.5 341.4 192 341.4C186.5 341.4 181.1 339.3 176.9 335.1C168.6 326.8 168.6 313.3 176.9 304.9L225.8 256L176.9 207.1C168.6 198.8 168.6 185.3 176.9 176.9C185.2 168.6 198.7 168.6 207.1 176.9L256 225.8L304.9 176.9C313.2 168.6 326.7 168.6 335.1 176.9C343.4 185.3 343.4 198.7 335.1 207.1ZM512 256C512 397.2 397.2 512 256 512C114.8 512 0 397.2 0 256C0 114.8 114.8 0 256 0C397.2 0 512 114.8 512 256ZM469.3 256C469.3 138.4 373.6 42.7 256 42.7C138.4 42.7 42.7 138.4 42.7 256C42.7 373.6 138.4 469.3 256 469.3C373.6 469.3 469.3 373.6 469.3 256Z" fill="black"/>
</g>
<defs>
<clipPath id="clip0_11_7">
<rect width="512" height="512" fill="white"/>
</clipPath>
</defs>
</svg>
